<?xml version="1.0" encoding="utf-8"?>
<!-- Generator: Adobe Illustrator 21.0.2, SVG Export Plug-In . SVG Version: 6.00 Build 0)  -->
<svg version="1.1" id="Layer_1" xmlns="http://www.w3.org/2000/svg" xmlns:xlink="http://www.w3.org/1999/xlink" x="0px" y="0px"
	 width="271.7px" height="321.7px" viewBox="0 0 271.7 321.7" style="enable-background:new 0 0 271.7 321.7;" xml:space="preserve"
	>
<style type="text/css">
	.st0{fill:#D80707;}
	.st1{fill:#E0B192;}
	.st2{fill:#866A58;}
	.st3{fill:#331500;}
	.st4{fill:#F6CBAC;}
	.st5{fill:#FFFC80;}
	.st6{fill:none;stroke:#D80707;stroke-width:2;stroke-linecap:round;stroke-linejoin:round;stroke-miterlimit:10;}
	.st7{fill:#0C2AC1;}
	.st8{fill:#E8D700;}
	.st9{fill:#D80707;stroke:#D80707;stroke-width:1.2;stroke-linecap:round;stroke-linejoin:round;stroke-miterlimit:10;}
	.st10{fill:url(#SVGID_1_);}
	.st11{fill:#DBA179;}
	.st12{fill:#9B0000;}
	.st13{fill:#FFE91D;}
</style>
<g>
	<g>
		<path class="st0" d="M120.9,116.4c0,0-26,45.6-62.5,62C25.5,193.1,0,183.8,0,183.8s50.7,77.1,127.1,66.9c0,0,50.4-38.8,40.9-129.9
			L120.9,116.4z"/>

			<rect x="132.5" y="122.2" transform="matrix(0.1167 -0.9932 0.9932 0.1167 0.574 264.5767)" class="st1" width="33.1" height="19.6"/>
		<path class="st1" d="M111.9,192.6c0,0-4.6,62.8-18.9,101.5c-0.5,1.4,0.4,2.9,1.9,3l6.9,0.8c0,0,15.4-48.5,19.2-103.8L111.9,192.6z
			"/>
		<path class="st1" d="M161.2,198.4c0,0-4.6,62.8-18.9,101.5c-0.5,1.4,0.4,2.9,1.9,3l6.9,0.8c0,0,15.5-49.1,19.3-104.4L161.2,198.4z
			"/>
		<path class="st2" d="M111.9,192.6c0,0-4.6,62.8-18.9,101.5c-0.5,1.4,0.4,2.9,1.9,3l6.9,0.8c0,0,15.4-48.5,19.2-103.8L111.9,192.6z
			"/>
		<path class="st2" d="M161.2,198.4c0,0-4.6,62.8-18.9,101.5c-0.5,1.4,0.4,2.9,1.9,3l6.9,0.8c0,0,15.5-49.1,19.3-104.4L161.2,198.4z
			"/>
		<polygon class="st1" points="166.5,116.7 160.7,116.7 160.5,116.7 160.7,116.7 160.7,100.7 141.1,100.7 141.1,114.4 135.3,114
			132.5,123.2 142.5,132.4 162.8,131.9 169.7,121.2 		"/>
		<path class="st3" d="M89.6,26.6c0,0-34.8,58.5,3.3,95.7c0,0,24-14.3,56.2-11.7l-0.9-69.2L89.6,26.6z"/>
		<path class="st4" d="M215.7,61.8c0.4,30.1-44.5,50.1-65.3,50.4c-25.3,0.3-66.3-18.5-66.7-48.6S112.6,8.6,149,8.1
			S215.3,31.6,215.7,61.8z"/>

			<ellipse transform="matrix(0.9999 -1.340014e-02 1.340014e-02 0.9999 -0.9464 1.1432)" class="st4" cx="84.8" cy="71.2" rx="7.1" ry="6"/>

			<ellipse transform="matrix(0.9999 -1.340014e-02 1.340014e-02 0.9999 -0.9108 2.9117)" class="st4" cx="216.8" cy="69.4" rx="7.1" ry="6"/>
		<path class="st3" d="M144.3,0.1c-31.2,2.2-53.4,16.6-59.9,37.3c-4.7,15.1-2.4,22.9-0.8,26c-0.5,8.2,8.4,13.7,8.4,13.7
			c-1.5-7.9,4.3-11.6,5.9-12.5c20-2.6,24.8-13,24.8-13c2.2,9.9-1.2,16.9-1.2,16.9C173.1,63,195.1,43,195.1,43
			c0.6-0.9,0.7-1.2,0.7-1.2c16,14.8,15.3,31.2,15.3,31.2c3.6-2.7,5.6-9.6,5.6-9.6C223.1,7,161.3-1.1,144.3,0.1z"/>
		<g>
			<path class="st5" d="M114.2,63.4l0,0.7C114.2,63.7,114.2,63.4,114.2,63.4z"/>
			<path class="st5" d="M114.2,64.1l0-0.7C114.2,63.4,114.1,63.7,114.2,64.1z"/>
			<path class="st5" d="M123.6,80.2c-8.1-1.8-9.3-11.7-9.4-15.4l0-0.7c0,0.1,0,0.2,0,0.3c0-0.1,0-0.2,0-0.3l0,0.7
				c-0.1,3.7-1.3,13.6-9.4,15.4c8.1,1.8,9.3,11.7,9.4,15.4l0,0.7c0-0.1,0-0.2,0-0.3c0,0.1,0,0.2,0,0.3l0-0.7
				C114.3,91.9,115.5,82,123.6,80.2z"/>
			<path class="st5" d="M114.2,97.1l0-0.7C114.1,96.8,114.2,97.1,114.2,97.1z"/>
			<path class="st5" d="M114.2,96.3l0,0.7C114.2,97.1,114.2,96.8,114.2,96.3z"/>
		</g>
		<g>
			<path class="st5" d="M184.1,63.4l0,0.7C184.2,63.7,184.1,63.4,184.1,63.4z"/>
			<path class="st5" d="M184.1,64.1l0-0.7C184.1,63.4,184.1,63.7,184.1,64.1z"/>
			<path class="st5" d="M193.6,80.2c-8.1-1.8-9.3-11.7-9.4-15.4l0-0.7c0,0.1,0,0.2,0,0.3c0-0.1,0-0.2,0-0.3l0,0.7
				c-0.1,3.7-1.3,13.6-9.4,15.4c8.1,1.8,9.3,11.7,9.4,15.4l0,0.7c0-0.1,0-0.2,0-0.3c0,0.1,0,0.2,0,0.3l0-0.7
				C184.3,91.9,185.5,82,193.6,80.2z"/>
			<path class="st5" d="M184.1,97.1l0-0.7C184.1,96.8,184.1,97.1,184.1,97.1z"/>
			<path class="st5" d="M184.2,96.3l0,0.7C184.1,97.1,184.2,96.8,184.2,96.3z"/>
		</g>
		<path class="st6" d="M157.8,90.6c0,0.1,0,3.1,0,3.2c-0.1,3.3-2.8,6-6.1,6c-3.3,0-6-2.7-6.1-5.9c0-0.1,0-3.1,0-3.2"/>
		<path class="st0" d="M160.7,116.7c0,0-1.4,6.7-2.9,9.7l2.8,1.1c0,0,7.3-6.2,7.3-6.7s-0.1-4.1-0.1-4.1L160.7,116.7z"/>
		<path class="st0" d="M141.1,114.4c0,0,0.1,12,0.5,12.8s-11.3,2.1-11.5,1.7c-0.2-0.4-0.5-9.5-0.5-9.5l4.7-5.4L141.1,114.4z"/>
		<path class="st7" d="M263.8,60.9C263.8,60.9,263.8,60.9,263.8,60.9c-31.5,47.7-81.4,54.8-88.3,55.5c-0.5,0.1-2.5,0.2-2.9,0.2
			c-2.5,0.1-5.2,0.1-6.4,0.1l-0.5,0l0,0.5c0,0.3-0.1,0.5-0.2,0.8c-0.4,1.6-1.1,3.1-2.1,4.3c-5.5,6.6-13.8,5.6-13.8,5.6
			c-14.1-0.9-14.2-13.9-14.2-13.9c-2.3-0.1-5.1-0.1-8,0.2c-1.5,0-5.7,1-6.1,1.2c0,0,0,0-0.1,0.1c-3.4,2.2-2.9,5-0.9,6.4c0,0,0,0,0,0
			l-8.3,70.5c0,0,0,0,0,0l58.1,6.8c0,0,0,0,0,0l8.5-72.5l0,0c0,0,15.5-3.9,32.9-11.1c7.7-2.8,14.4-6.2,20.3-9.8c9-5.2,22-18,22-18
			c10.6-11.5,14.5-21.2,14.5-21.2c0,0,0,0,0,0L263.8,60.9z"/>
		<g>
			<polygon class="st0" points="162.5,139.1 134.2,135.8 121.8,145.2 144.4,171 172.4,151.1 			"/>
			<polygon class="st8" points="159.4,141.6 136.7,138.9 126.7,145.9 144.9,166.7 167.5,150.7 			"/>
			<g>
				<polygon class="st9" points="157.6,158.5 156.1,159.7 155.9,161.4 				"/>
				<polygon class="st9" points="153.8,140 146.7,153.4 143,138.8 134.1,137.7 133.8,140.3 138.2,140.8 136.1,159.1 134.6,157.2
					136.7,160 140.5,162.2 140.8,159.6 138.6,159.4 140.7,141.1 145.6,159.9 146.2,160 155.3,142.8 153.2,161.1 150.7,160.8
					150.4,163.3 154.2,161.3 156.1,159.7 158.1,143.1 162.5,143.7 162.8,141.1 				"/>
			</g>
		</g>

			<linearGradient id="SVGID_1_" gradientUnits="userSpaceOnUse" x1="-9.1765" y1="-6.3916" x2="52.8701" y2="-42.2142" gradientTransform="matrix(0.9932 0.1167 0.1167 -0.9932 111.3993 124.8065)">
			<stop  offset="0" style="stop-color:#0C2AC1"/>
			<stop  offset="0.4241" style="stop-color:#0B29BC"/>
			<stop  offset="0.5738" style="stop-color:#0A25AE"/>
			<stop  offset="0.9088" style="stop-color:#071F96"/>
			<stop  offset="1" style="stop-color:#061D8E"/>
		</linearGradient>
		<path class="st10" d="M133.6,114c-8.8-0.4-25.5,1.7-34.5,20.9c-12.5,26.8,10,67.1,65.8,30.1l-3-6.1c0,0-30.8,22.4-49.4,9.3
			c0,0-14.8-10.3-8.6-28.9c0,0,8-17.6,28.4-19c0.4,0,1.9-0.6,2.4-1c0.9-0.8,0.8-2.9,0.3-4.1C134.6,114.7,134.4,114.1,133.6,114z"/>
		<path class="st11" d="M161.5,161.9c0,0-0.1-0.1-0.2-0.2c-0.1-0.1-0.3-0.3-0.4-0.5c-0.3-0.5-0.6-1.1-0.6-1.8c0-1,0.5-1.9,1.1-2.6
			c0.2-0.2,0.4-0.4,0.6-0.6c0.1-0.1,0.4-0.2,0.6-0.2c0.2,0,0.4,0,0.6,0.1c0.6,0.4,0.3,1.3,0.1,1.8c0,0-1.5,2-1,2.8
			C162.9,161.6,161.5,161.9,161.5,161.9z"/>
		<path class="st1" d="M161.5,161.9c0,0-0.7-3.8,2-4.6s5.9,1.5,5.7,3.8c-0.1,2.3-1.1,3.6-3.7,3.9
			C162.9,165.4,161.5,161.9,161.5,161.9z"/>
		<path class="st11" d="M265.9,67c0,0,0.1,0.2,0.2,0.2c0.1,0.2,0.3,0.3,0.5,0.4c0.5,0.4,1.1,0.6,1.7,0.6c1,0.1,1.9-0.4,2.6-1
			c0.2-0.2,0.4-0.4,0.6-0.6c0.1-0.2,0.2-0.4,0.2-0.6c0-0.2,0-0.4-0.1-0.6c-0.3-0.6-1.3-0.4-1.8-0.2c0,0-2.1,1.4-2.8,0.9
			C266.3,65.5,265.9,67,265.9,67z"/>
		<path class="st1" d="M265.9,67c0,0,3.7,0.9,4.7-1.8c0.9-2.7-1.2-5.9-3.5-5.9c-2.3,0-3.6,0.9-4.1,3.5C262.5,65.4,265.9,67,265.9,67
			z"/>
		<path class="st7" d="M112,192.4c0,0-7.5,18.1-21.3,24.7c0,0,41.8,30.9,76,10.4c8.1-4.9,3.3-28.3,3.3-28.3L112,192.4z"/>
		<path class="st8" d="M112.8,184.9c0,0,18.9,0.7,28.8,5.4c0,0,13-2.1,29.5-0.1l-1.1,9l-58.1-6.8L112.8,184.9z"/>
		<path class="st7" d="M120,123.9c0,0-16.9,11.3-17.3,29l-0.6,3.9l-3-11.3l11.7-21.7l12.1-4.8L120,123.9z"/>
		<path class="st12" d="M113.6,249.7l2-5.5c-3.5-1.9-6.9,3-7.7,4.4h-3.3c-2.8,15.6-6.6,32-11.6,45.5c-0.1,0.2-0.1,0.4-0.1,0.6
			c-0.5,2.4-2.2,11.8,2.8,19.1c5.8,8.4,6.7-17.8,6.7-17.8l0,0C104.1,290.4,109.1,273,113.6,249.7L113.6,249.7z"/>
		<path class="st12" d="M162.7,256.5l2-5.5c-3.4-1.8-6.7,2.7-7.6,4.3l-3.4-0.1c-2.8,15.4-6.6,31.4-11.4,44.6
			c-0.1,0.2-0.1,0.4-0.1,0.7c0,0,0,0,0,0c0,0-0.9,16.4,4.1,20.6s5.3-19,5.3-19s0,0,0,0C153.1,297,158,279.8,162.7,256.5L162.7,256.5
			z"/>
	</g>
	<path class="st13" d="M213.1,34.5c-1.8-4.1-4.1-7.7-6.8-10.9H205c-18.4,2.5-35.4,3.5-50.5,3.8c-2-3.2-3.9-6.9-4.4-10.4
		c0,0-0.7,5-3.9,10.4c-32.9-0.1-54.3-3.8-54.5-3.8c-2.6,3.3-4.7,6.9-6.3,10.8l0.1,0.1c21.7,4.2,41.7,5.8,59.2,6.2
		c2.8,2.6,5.4,6.3,5.3,10.6c0,0,1.4-5.4,5.8-10.5C190.8,40.2,213.1,34.5,213.1,34.5z"/>
	<polygon class="st0" points="150.4,28.6 152.1,32.1 155.9,32.6 153.1,35.3 153.8,39.1 150.4,37.3 147,39.1 147.6,35.3 144.9,32.6
		148.7,32.1 	"/>
</g>
</svg>
