<?xml version="1.0" encoding="utf-8"?>
<!-- Generator: Adobe Illustrator 21.0.2, SVG Export Plug-In . SVG Version: 6.00 Build 0)  -->
<svg version="1.1" id="Layer_1" xmlns="http://www.w3.org/2000/svg" xmlns:xlink="http://www.w3.org/1999/xlink" x="0px" y="0px"
	 width="271.69px" height="321.67px" viewBox="0 0 271.69 321.67" style="enable-background:new 0 0 271.69 321.67;"
	 xml:space="preserve">
<style type="text/css">
	.st0{fill:#D80707;}
	.st1{fill:#F6CBAC;}
	.st2{fill:#E0B192;}
	.st3{fill:#1C275E;}
	.st4{opacity:0.4;}
	.st5{fill:#9B0000;}
	.st6{fill:#331500;}
	.st7{fill:#FFFC80;}
	.st8{fill:none;stroke:#D80707;stroke-width:2;stroke-linecap:round;stroke-linejoin:round;stroke-miterlimit:10;}
	.st9{fill:#0C2AC1;}
	.st10{fill:#0C20AF;}
	.st11{fill:#E8D700;}
	.st12{fill:#D80707;stroke:#D80707;stroke-width:1.2;stroke-linecap:round;stroke-linejoin:round;stroke-miterlimit:10;}
	.st13{fill:url(#SVGID_1_);}
	.st14{fill:#DBA179;}
	.st15{fill:#FFE91D;}
</style>
<g>
	<g>
		<path class="st0" d="M120.9,116.36c0,0-26.02,45.61-62.54,61.98C25.47,193.09,0,183.78,0,183.78s50.71,77.12,127.07,66.92
			c0,0,50.42-38.8,40.87-129.85L120.9,116.36z"/>

			<rect x="116.22" y="119.52" transform="matrix(0.9932 0.1167 -0.1167 0.9932 19.425 -15.9015)" class="st1" width="58.51" height="76.76"/>

			<rect x="139.21" y="115.42" transform="matrix(0.9932 0.1167 -0.1167 0.9932 16.4228 -16.4926)" class="st2" width="19.62" height="33.09"/>
		<polygon class="st3" points="168.5,212.58 110.75,205.79 111.94,192.6 170.05,199.43 		"/>
		<path class="st2" d="M111.94,192.6c0,0-4.61,62.75-18.89,101.54c-0.5,1.37,0.42,2.85,1.87,3.02l6.9,0.81
			c0,0,15.39-48.52,19.21-103.82L111.94,192.6z"/>
		<path class="st2" d="M161.17,198.38c0,0-4.61,62.75-18.89,101.54c-0.5,1.37,0.42,2.85,1.87,3.02l6.9,0.81
			c0,0,15.51-49.14,19.32-104.43L161.17,198.38z"/>
		<path class="st2" d="M111.94,192.6c0,0-4.61,62.75-18.89,101.54c-0.5,1.37,0.42,2.85,1.87,3.02l6.9,0.81
			c0,0,15.39-48.52,19.21-103.82L111.94,192.6z"/>
		<path class="st2" d="M161.17,198.38c0,0-4.61,62.75-18.89,101.54c-0.5,1.37,0.42,2.85,1.87,3.02l6.9,0.81
			c0,0,15.51-49.14,19.32-104.43L161.17,198.38z"/>
		<path class="st4" d="M111.94,192.6c0,0-4.61,62.75-18.89,101.54c-0.5,1.37,0.42,2.85,1.87,3.02l6.9,0.81
			c0,0,15.39-48.52,19.21-103.82L111.94,192.6z"/>
		<path class="st5" d="M104.65,248.63c-2.84,15.64-6.63,32.02-11.6,45.51c-0.5,1.37,0.42,2.85,1.87,3.02l6.9,0.81
			c0,0,6.4-20.18,11.97-49.34L104.65,248.63z"/>
		<path class="st4" d="M161.17,198.38c0,0-4.61,62.75-18.89,101.54c-0.5,1.37,0.42,2.85,1.87,3.02l6.9,0.81
			c0,0,15.51-49.14,19.32-104.43L161.17,198.38z"/>
		<path class="st5" d="M153.72,255.28c-2.82,15.37-6.57,31.4-11.44,44.64c-0.5,1.37,0.42,2.85,1.87,3.02l6.9,0.81
			c0,0,6.23-19.75,11.77-48.29L153.72,255.28z"/>
		<path class="st2" d="M175.75,46.09c0,0-10.17-2.51-11.8,3.83c0,0,0.2,2.25,7.77,2.25c0,0-3.89-0.2-3.27,1.23
			c0.61,1.43,7.3,0.05,7.3,0.05V46.09z"/>
		<path class="st6" d="M89.59,26.56c0,0-34.75,58.49,3.25,95.73c0,0,23.96-14.28,56.19-11.74l-0.93-69.24L89.59,26.56z"/>
		<rect x="141.08" y="100.7" class="st2" width="19.62" height="16"/>
		<path class="st1" d="M215.73,61.75c0.4,30.1-44.54,50.1-65.33,50.38c-25.27,0.34-66.25-18.51-66.66-48.61S112.56,8.63,149,8.14
			S215.32,31.65,215.73,61.75z"/>

			<ellipse transform="matrix(0.9999 -0.0134 0.0134 0.9999 -0.9477 1.1449)" class="st1" cx="84.84" cy="71.19" rx="7.15" ry="6.05"/>

			<ellipse transform="matrix(0.9999 -0.0134 0.0134 0.9999 -0.912 2.9159)" class="st1" cx="216.83" cy="69.42" rx="7.15" ry="6.05"/>
		<path class="st6" d="M195.09,43c0,0-21.95,20-73.53,25.55c0,0,3.38-6.94,1.21-16.86c0,0-6.74,14.72-38,13.46
			c0,0-6.88-6.95-0.37-27.71S113.06,2.27,144.26,0.1c17.07-1.19,78.88,6.94,72.49,63.26c0,0-2.05,6.89-5.63,9.63
			c0,0,0.66-16.35-15.3-31.19C195.82,41.8,195.73,42.11,195.09,43z"/>
		<path class="st6" d="M98.44,64.43c0,0-8.1,3.49-6.37,12.72c0,0-10.76-6.66-8.01-16.1C86.82,51.61,98.44,64.43,98.44,64.43z"/>
		<g>
			<path class="st7" d="M114.15,63.39l0.01,0.71C114.16,63.66,114.15,63.39,114.15,63.39z"/>
			<path class="st7" d="M114.15,64.11l0.01-0.71C114.15,63.39,114.14,63.66,114.15,64.11z"/>
			<path class="st7" d="M123.59,80.23c-8.13-1.8-9.29-11.67-9.43-15.4l-0.01-0.72c0,0.08,0,0.19-0.01,0.29c0-0.1-0.01-0.2-0.01-0.29
				l-0.01,0.72c-0.14,3.73-1.3,13.59-9.43,15.4c8.13,1.8,9.29,11.67,9.43,15.4l0.01,0.72c0-0.08,0-0.19,0.01-0.29
				c0,0.1,0.01,0.2,0.01,0.29l0.01-0.72C114.31,91.89,115.46,82.03,123.59,80.23z"/>
			<path class="st7" d="M114.15,97.06l-0.01-0.71C114.14,96.79,114.15,97.06,114.15,97.06z"/>
			<path class="st7" d="M114.16,96.34l-0.01,0.71C114.15,97.06,114.16,96.79,114.16,96.34z"/>
		</g>
		<g>
			<path class="st7" d="M184.15,63.39l0.01,0.71C184.16,63.66,184.15,63.39,184.15,63.39z"/>
			<path class="st7" d="M184.15,64.11l0.01-0.71C184.15,63.39,184.14,63.66,184.15,64.11z"/>
			<path class="st7" d="M193.59,80.23c-8.13-1.8-9.29-11.67-9.43-15.4l-0.01-0.72c0,0.08,0,0.19-0.01,0.29c0-0.1-0.01-0.2-0.01-0.29
				l-0.01,0.72c-0.14,3.73-1.3,13.59-9.43,15.4c8.13,1.8,9.29,11.67,9.43,15.4l0.01,0.72c0-0.08,0-0.19,0.01-0.29
				c0,0.1,0.01,0.2,0.01,0.29l0.01-0.72C184.31,91.89,185.46,82.03,193.59,80.23z"/>
			<path class="st7" d="M184.15,97.06l-0.01-0.71C184.14,96.79,184.15,97.06,184.15,97.06z"/>
			<path class="st7" d="M184.16,96.34l-0.01,0.71C184.15,97.06,184.16,96.79,184.16,96.34z"/>
		</g>
		<path class="st8" d="M157.77,90.56c0,0.05,0,3.11,0,3.16c-0.09,3.31-2.79,5.96-6.12,5.96c-3.32,0-6.03-2.65-6.12-5.95
			c0-0.06,0-3.12,0-3.18"/>
		<path class="st2" d="M173.34,116.68c0,0,52.28-0.31,90.45-55.78l4.4,5.71c0,0-19.68,48.89-89.48,56.56L173.34,116.68z"/>
		<path class="st9" d="M173.34,116.68c0,0,56.63-4.54,90.45-55.78l4.4,5.71c0,0-19.68,48.89-89.48,56.56L173.34,116.68z"/>
		<path class="st10" d="M173.34,116.68c-3.15-0.32-12.65,0.04-12.65,0.04l8.9,7.71l10.03-6.43
			C179.62,117.99,174.94,116.84,173.34,116.68z"/>
		<polygon class="st2" points="141.21,114.43 135.3,114 132.47,123.25 142.55,132.41 162.84,131.86 169.71,121.17 166.49,116.7
			160.69,116.72 		"/>
		<path class="st0" d="M160.69,116.72c0,0-1.38,6.73-2.87,9.72l2.77,1.07c0,0,7.3-6.17,7.34-6.65c0.04-0.48-0.1-4.13-0.1-4.13
			L160.69,116.72z"/>
		<path class="st0" d="M141.21,114.43c0,0-0.02,11.93,0.37,12.78s-11.31,2.06-11.51,1.72c-0.2-0.35-0.5-9.5-0.5-9.5l4.67-5.45
			L141.21,114.43z"/>
		<path class="st9" d="M195.67,119.46c0,0-17.1-1.81-29.19-2.76c-4.61,12.67-16.98,11.19-16.98,11.19
			c-14.12-0.87-14.2-13.89-14.2-13.89c-2.33-0.08-5.14-0.07-8.02,0.18c-1.55,0.05-6.2,1.08-6.13,1.26c-3.44,2.25-2.93,5.03-0.9,6.41
			l-8.29,70.53l58.11,6.83l8.96-76.24l-0.3-0.04C183.89,122.33,189.86,121.26,195.67,119.46z"/>
		<g>
			<polygon class="st0" points="162.53,139.08 134.23,135.76 121.8,145.17 144.44,170.99 172.45,151.12 			"/>
			<polygon class="st11" points="159.43,141.55 136.68,138.88 126.74,145.95 144.94,166.7 167.46,150.73 			"/>
			<g>
				<path class="st12" d="M136.06,159.05l2.14-18.25l-4.43-0.52l0.3-2.55l8.95,1.05l3.72,14.59l7.06-13.32l9.03,1.06l-0.3,2.55
					l-4.45-0.52l-2.14,18.25l1.65-2.85l-3.36,2.77l-3.79,2.02l0.3-2.55l2.43,0.29l2.14-18.25l-9.14,17.2l-0.6-0.07l-4.84-18.84
					l-2.14,18.25l2.24,0.26l-0.3,2.55l-3.85-2.13l-2.05-2.82L136.06,159.05z"/>
			</g>
		</g>
		<path class="st2" d="M134.75,114.14c-7.99-0.44-26.08,0.95-35.7,20.74c-12.92,26.59,9.97,67.07,65.8,30.14l-3.01-6.09
			c0,0-30.82,22.39-49.42,9.29c0,0-14.85-10.26-8.61-28.87c0,0,8.44-20.71,29.87-21.18C134.78,118.15,134.75,114.14,134.75,114.14z"
			/>

			<linearGradient id="SVGID_1_" gradientUnits="userSpaceOnUse" x1="-19.2661" y1="426.1654" x2="42.7764" y2="461.9856" gradientTransform="matrix(0.9932 0.1167 -0.1167 0.9932 170.561 -291.1164)">
			<stop  offset="0" style="stop-color:#0C2AC1"/>
			<stop  offset="0.2624" style="stop-color:#0B29BC"/>
			<stop  offset="0.5738" style="stop-color:#0A25AE"/>
			<stop  offset="0.9088" style="stop-color:#071F96"/>
			<stop  offset="1" style="stop-color:#061D8E"/>
		</linearGradient>
		<path class="st13" d="M133.56,114.03c-8.82-0.37-25.54,1.72-34.5,20.85c-12.54,26.77,9.97,67.07,65.8,30.14l-3.01-6.09
			c0,0-30.82,22.39-49.42,9.29c0,0-14.85-10.26-8.61-28.87c0,0,8.05-19.76,28.4-21.11c0.43-0.03,1.42,1.09,1.94,0.63
			c0.9-0.8,1.43-3.29,0.95-4.46C134.86,113.83,134.4,114.07,133.56,114.03z"/>
		<path class="st14" d="M161.48,161.9c-0.03,0.01-0.15-0.15-0.17-0.17c-0.14-0.15-0.27-0.32-0.38-0.49
			c-0.34-0.53-0.55-1.14-0.56-1.77c0-0.97,0.47-1.85,1.09-2.56c0.19-0.22,0.39-0.42,0.6-0.62c0.15-0.15,0.44-0.16,0.65-0.16
			c0.21,0,0.43,0.03,0.61,0.14c0.6,0.36,0.31,1.27,0.11,1.77c0,0-1.5,2.02-1,2.78C162.94,161.59,161.48,161.9,161.48,161.9z"/>
		<path class="st2" d="M161.48,161.9c0,0-0.72-3.75,2.02-4.56c2.74-0.81,5.86,1.51,5.72,3.82c-0.15,2.31-1.06,3.56-3.7,3.89
			C162.87,165.38,161.48,161.9,161.48,161.9z"/>
		<path class="st14" d="M265.87,66.98c-0.01,0.03,0.14,0.16,0.16,0.18c0.14,0.15,0.3,0.28,0.47,0.4c0.51,0.37,1.11,0.61,1.74,0.64
			c0.96,0.05,1.87-0.38,2.61-0.96c0.23-0.18,0.44-0.37,0.64-0.57c0.15-0.15,0.18-0.44,0.19-0.64c0.01-0.21-0.01-0.43-0.11-0.62
			c-0.33-0.62-1.25-0.37-1.76-0.2c0,0-2.09,1.39-2.83,0.86C266.25,65.54,265.87,66.98,265.87,66.98z"/>
		<path class="st2" d="M265.87,66.98c0,0,3.71,0.9,4.66-1.79c0.94-2.7-1.22-5.93-3.53-5.9c-2.32,0.03-3.61,0.88-4.07,3.51
			S265.87,66.98,265.87,66.98z"/>
		<path class="st9" d="M111.97,192.38c0,0-7.54,18.08-21.26,24.72c0,0,41.78,30.87,76.04,10.37c8.12-4.86,3.32-28.26,3.32-28.26
			L111.97,192.38z"/>
		<path class="st11" d="M112.85,184.88c0,0,18.93,0.69,28.82,5.4c0,0,12.96-2.05,29.46-0.09l-1.06,9.01l-58.11-6.83L112.85,184.88z"
			/>
		<path class="st5" d="M107.69,248.99c0,0,3.85-6.96,7.93-4.77l-2.02,5.47L107.69,248.99z"/>
		<path class="st5" d="M156.79,255.84c0,0,3.85-6.96,7.93-4.77l-2.02,5.47L156.79,255.84z"/>
		<path class="st9" d="M120.02,123.89c0,0-16.89,11.32-17.3,28.98l-0.59,3.93l-3-11.34l11.72-21.67l12.12-4.84L120.02,123.89z"/>
		<path class="st9" d="M178.59,126.74c0,0,57.66-14.61,75.16-38.98l-24.51,12.94l-41.77,17.92l-9.26,1.7L178.59,126.74z"/>
		<path class="st5" d="M93.06,294.14c0,0-3.06,11.28,2.69,19.67c5.75,8.4,6.67-17.77,6.67-17.77L93.06,294.14z"/>
		<path class="st5" d="M142.14,300.6c0,0-0.87,16.37,4.06,20.56c4.93,4.19,5.34-19.01,5.34-19.01S148.11,294.7,142.14,300.6z"/>
	</g>
	<path class="st15" d="M213.05,34.48c-1.79-4.08-4.1-7.69-6.78-10.9h-1.26c-18.35,2.46-35.45,3.51-50.53,3.76
		c-2.04-3.21-3.88-6.9-4.41-10.36c0,0-0.7,5.02-3.85,10.42c-32.95-0.07-54.32-3.8-54.46-3.82c-2.62,3.32-4.72,6.93-6.26,10.77
		l0.07,0.13c21.67,4.17,41.74,5.85,59.24,6.17c2.81,2.64,5.43,6.28,5.27,10.57c0,0,1.36-5.4,5.82-10.55
		C190.84,40.17,213.05,34.49,213.05,34.48z"/>
	<polygon class="st0" points="150.39,28.6 152.1,32.07 155.92,32.62 153.15,35.32 153.81,39.12 150.39,37.32 146.97,39.12
		147.62,35.32 144.86,32.62 148.68,32.07 	"/>
</g>
</svg>
