<?xml version="1.0" encoding="utf-8"?>
<!-- Generator: Adobe Illustrator 21.0.2, SVG Export Plug-In . SVG Version: 6.00 Build 0)  -->
<svg version="1.1" id="Layer_1" xmlns="http://www.w3.org/2000/svg" xmlns:xlink="http://www.w3.org/1999/xlink" x="0px" y="0px"
	 width="174.1px" height="245px" viewBox="0 0 174.1 245" style="enable-background:new 0 0 174.1 245;" xml:space="preserve">
<style type="text/css">
	.st0{fill:#F4CC25;}
	.st1{fill:#FFE783;}
	.st2{fill:#FFDB43;}
	.st3{display:none;}
	.st4{display:inline;fill:#C19C00;}
	.st5{display:inline;fill:#E5B900;}
	.st6{display:inline;fill:#EFCD41;}
	.st7{display:inline;fill:#F4CC25;}
	.st8{display:inline;fill:#FFDB43;}
	.st9{display:inline;fill:#FFE783;}
	.st10{display:inline;}
	.st11{clip-path:url(#SVGID_2_);}
	.st12{fill:#C19C00;}
	.st13{fill:#E5B900;}
	.st14{fill:#EFCD41;}
</style>
<g>
	<path class="st0" d="M139.5,0c0,0-99.1,169.9-139.5,221.5h11.8c0,0,94.1-125.6,133.1-204.4L139.5,0z"/>
	<path class="st0" d="M171.3,7.8c0,0-46.9,108.9-75.7,151.8h-7.3l72.1-138.8L171.3,7.8z"/>
	<path class="st0" d="M145.3,43.4c0,0-93.6,156.2-113.3,188.1H19L144.9,28.2L145.3,43.4z"/>
	<path class="st1" d="M129.8,24.8l15.5,2.7c0,0-88.3,147.8-123.8,199.5l-14.3-0.2C7.2,226.8,123.3,47.6,129.8,24.8z"/>
	<path class="st0" d="M156.8,28.5l17.2,2.9c0,0-101.3,171.2-129.5,213.6l-10.6-6.8L156.8,28.5z"/>
	<path class="st1" d="M157.5,27.4c0,0-95.4,179-120,208.6l-8.2-1.1L144.6,44.6L157.5,27.4z"/>
	<polygon class="st2" points="129.8,24.8 144.8,28.3 144.6,44.7 156.7,28.7 174.1,31.4 162.3,20.8 171.3,7.8 154.7,13.1 139.5,0
		144,17.8 	"/>
</g>
<g class="st3">
	<path class="st4" d="M420.9,1.4c0,0-84.1,150.7-140.6,223h16.5c0,0,76-87.7,130.5-198.1L420.9,1.4z"/>
	<path class="st4" d="M465.3,12.3c0,0-65.7,152.4-106,212.4H349L449.9,30.4L465.3,12.3z"/>
	<polygon class="st5" points="407.3,36 428.3,41 427.9,63.9 444.9,41.6 469.2,45.4 452.8,30.4 465.3,12.3 442.1,19.7 420.9,1.4
		427.1,26.3 	"/>
	<path class="st6" d="M407.3,36l21,5c0,0-62,111.2-111.6,183.6l-20-0.3C296.7,224.4,398.2,68,407.3,36z"/>
	<path class="st4" d="M427.9,63.9c0,0-65.4,116.1-93,160.8h-18.3L428.3,41L427.9,63.9z"/>
	<path class="st4" d="M444.9,41.6l24.3,3.8c0,0-59.8,119.9-99.3,179.3l-23.6-0.3L444.9,41.6z"/>
	<path class="st6" d="M444.9,41.6c0,0-64.1,141.3-98.5,182.8l-11.5,0.3l93-160.8L444.9,41.6z"/>
</g>
<g class="st3">
	<path class="st7" d="M389.9-57.7c0,0-95.5,156.1-128.4,198l7.9-2.5c0,0,92.6-117,124.2-181.1L389.9-57.7z"/>
	<path class="st7" d="M415.7-51.3c0,0-38.1,88.5-61.5,123.2h-6l58.5-112.7L415.7-51.3z"/>
	<polygon class="st8" points="382,-37.6 394.2,-34.7 394,-21.4 403.8,-34.4 418,-32.2 408.4,-40.8 415.7,-51.3 402.2,-47.1
		389.9,-57.7 393.5,-43.2 	"/>
	<path class="st9" d="M382-37.6l12.2,2.9c0,0-79.8,133-108.6,175l-13.8-2.5C271.8,137.8,376.7-19,382-37.6z"/>
	<path class="st7" d="M394-21.4c0,0-91,156.9-107.1,182.8l-1.3-21.1l108.6-175L394-21.4z"/>
	<path class="st7" d="M403.8-34.4l14.1,2.2c0,0-87.3,161.1-110.2,195.6h-9.5L403.8-34.4z"/>
	<path class="st9" d="M403.8-34.4c0,0-87.6,175.1-107.6,199.2l-9.3-5.9L394-21.4L403.8-34.4z"/>
</g>
<g class="st3">
	<path class="st4" d="M249.7-68.5c0,0-60.1,107.7-100.5,159.3H161c0,0,54.3-62.7,93.2-141.5L249.7-68.5z"/>
	<path class="st4" d="M281.5-60.7c0,0-46.9,108.9-75.7,151.8h-7.3l72.1-138.8L281.5-60.7z"/>
	<polygon class="st5" points="240.1,-43.8 255,-40.2 254.8,-23.9 266.9,-39.8 284.3,-37.1 272.5,-47.8 281.5,-60.7 264.9,-55.5
		249.7,-68.5 254.2,-50.7 	"/>
	<path class="st6" d="M240.1-43.8l15,3.6c0,0-44.3,79.5-79.8,131.2L161,90.8C161,90.8,233.5-20.9,240.1-43.8z"/>
	<path class="st4" d="M254.8-23.9c0,0-46.8,83-66.5,114.9h-13L255-40.2L254.8-23.9z"/>
	<path class="st4" d="M266.9-39.8l17.4,2.7c0,0-42.7,85.7-70.9,128.1l-16.9-0.2L266.9-39.8z"/>
	<path class="st6" d="M266.9-39.8c0,0-45.8,102.3-70.4,131.9l-8.2-1.1l66.5-114.9L266.9-39.8z"/>
</g>
<g class="st3">
	<g class="st10">
		<defs>
			<rect id="SVGID_1_" x="-28.3" y="-93.3" width="472.7" height="318.4"/>
		</defs>
		<clipPath id="SVGID_2_">
			<use xlink:href="#SVGID_1_"  style="overflow:visible;"/>
		</clipPath>
		<g class="st11">
			<path class="st12" d="M245.8,94.2c0,0-84.1,150.7-140.6,223h16.5c0,0,76-87.7,130.4-198.1L245.8,94.2z"/>
			<path class="st12" d="M290.3,105.1c0,0-65.7,152.4-106,212.4H174l100.8-194.3L290.3,105.1z"/>
			<polygon class="st13" points="232.3,128.8 253.3,133.8 252.9,156.7 269.9,134.4 294.2,138.1 277.7,123.2 290.3,105.1
				267.1,112.5 245.8,94.2 252.1,119.1 			"/>
			<path class="st14" d="M232.3,128.8l21,5c0,0-61.9,111.2-111.6,183.6l-20-0.3C121.7,317.1,223.1,160.8,232.3,128.8z"/>
			<path class="st12" d="M252.9,156.7c0,0-65.4,116.1-93,160.8h-18.3l111.6-183.6L252.9,156.7z"/>
			<path class="st12" d="M269.9,134.4l24.3,3.8c0,0-59.8,119.9-99.3,179.3l-23.6-0.3L269.9,134.4z"/>
			<path class="st14" d="M269.9,134.4c0,0-64.1,143.2-98.5,184.6l-11.5-1.5l93-160.8L269.9,134.4z"/>
		</g>
	</g>
</g>
</svg>
