<?xml version="1.0" encoding="utf-8"?>
<!-- Generator: Adobe Illustrator 21.0.2, SVG Export Plug-In . SVG Version: 6.00 Build 0)  -->
<svg version="1.1" id="Layer_1" xmlns="http://www.w3.org/2000/svg" xmlns:xlink="http://www.w3.org/1999/xlink" x="0px" y="0px"
	 width="189.01px" height="222.96px" viewBox="0 0 189.01 222.96" style="enable-background:new 0 0 189.01 222.96;"
	 xml:space="preserve">
<style type="text/css">
	.st0{display:none;}
	.st1{display:inline;fill:#F4CC25;}
	.st2{display:inline;fill:#C19C00;}
	.st3{display:inline;fill:#FFDB43;}
	.st4{display:inline;fill:#FFE783;}
	.st5{fill:#C19C00;}
	.st6{fill:#E5B900;}
	.st7{fill:#EFCD41;}
	.st8{display:inline;fill:#E5B900;}
	.st9{display:inline;fill:#EFCD41;}
	.st10{display:inline;}
	.st11{display:inline;clip-path:url(#SVGID_2_);}
</style>
<g class="st0">
	<path class="st1" d="M-140.71-1.4c0,0-60.07,107.69-100.49,159.32h11.78c0,0,54.29-62.68,93.22-141.53L-140.71-1.4z"/>
	<path class="st2" d="M-108.96,6.41c0,0-46.93,108.93-75.74,151.75h-7.33l72.05-138.8L-108.96,6.41z"/>
	<polygon class="st3" points="-150.38,23.37 -135.4,26.93 -135.66,43.28 -123.53,27.32 -106.15,30.02 -117.9,19.36 -108.96,6.41
		-125.51,11.66 -140.71,-1.4 -136.21,16.39 	"/>
	<path class="st4" d="M-150.38,23.37l14.98,3.56c0,0-44.27,79.48-79.77,131.23l-14.26-0.24
		C-229.42,157.92-156.92,46.19-150.38,23.37z"/>
	<path class="st1" d="M-135.66,43.28c0,0-46.75,82.97-66.47,114.88h-13.04l79.77-131.23L-135.66,43.28z"/>
	<path class="st1" d="M-123.53,27.32l17.38,2.69c0,0-67.75,127.17-95.98,169.62l8.21-41.72L-123.53,27.32z"/>
	<path class="st4" d="M-123.53,27.32c0,0-45.79,102.3-70.39,131.9l-8.21-1.07l66.47-114.88L-123.53,27.32z"/>
</g>
<g>
	<path class="st5" d="M140.64,0c0,0-84.06,150.71-140.64,222.96h16.49c0,0,75.97-87.72,130.45-198.07L140.64,0z"/>
	<path class="st5" d="M185.08,10.93c0,0-65.68,152.45-106,212.36H68.82L169.65,29.05L185.08,10.93z"/>
	<polygon class="st6" points="127.11,34.65 148.08,39.64 147.71,62.52 164.69,40.19 189.01,43.96 172.56,29.05 185.08,10.93
		161.92,18.28 140.64,0 146.94,24.89 	"/>
	<path class="st7" d="M127.11,34.65l20.97,4.99c0,0-61.95,111.23-111.63,183.65l-19.95-0.33C16.49,222.96,117.96,66.6,127.11,34.65z
		"/>
	<path class="st5" d="M147.71,62.52c0,0-65.43,116.12-93.02,160.78H36.44L148.08,39.64L147.71,62.52z"/>
	<path class="st5" d="M164.69,40.19l24.32,3.77c0,0-59.75,119.91-99.25,179.33l-23.58-0.33L164.69,40.19z"/>
	<path class="st7" d="M164.69,40.19c0,0-64.09,141.34-98.51,182.77l-11.49,0.33l93.02-160.78L164.69,40.19z"/>
</g>
<g class="st0">
	<path class="st1" d="M109.68-59.09c0,0-95.55,156.07-128.38,198l7.87-2.48c0,0,92.56-117.03,124.17-181.07L109.68-59.09z"/>
	<path class="st1" d="M135.46-52.74c0,0-38.12,88.47-61.51,123.24H68l58.51-112.73L135.46-52.74z"/>
	<polygon class="st3" points="101.82,-38.97 113.99,-36.08 113.78,-22.8 123.63,-35.76 137.75,-33.57 128.2,-42.23 135.46,-52.74
		122.02,-48.48 109.68,-59.09 113.33,-44.64 	"/>
	<path class="st4" d="M101.82-38.97l12.17,2.89c0,0-79.76,132.97-108.6,174.99l-13.82-2.48C-8.42,136.43,96.51-20.44,101.82-38.97z"
		/>
	<path class="st1" d="M113.78-22.8c0,0-91.05,156.92-107.06,182.84L5.4,138.91l108.6-174.99L113.78-22.8z"/>
	<path class="st1" d="M123.63-35.76l14.12,2.19c0,0-87.27,161.1-110.19,195.58h-9.5L123.63-35.76z"/>
	<path class="st4" d="M123.63-35.76c0,0-87.61,175.13-107.58,199.17l-9.33-5.89L113.78-22.8L123.63-35.76z"/>
</g>
<g class="st0">
	<path class="st2" d="M-30.48-69.92c0,0-60.07,107.69-100.49,159.32h11.78c0,0,54.29-62.68,93.22-141.53L-30.48-69.92z"/>
	<path class="st2" d="M1.27-62.11c0,0-46.93,108.93-75.74,151.75h-7.33l72.05-138.8L1.27-62.11z"/>
	<polygon class="st8" points="-40.15,-45.16 -25.17,-41.6 -25.43,-25.25 -13.3,-41.2 4.08,-38.51 -7.67,-49.17 1.27,-62.11
		-15.28,-56.86 -30.48,-69.92 -25.98,-52.13 	"/>
	<path class="st9" d="M-40.15-45.16l14.98,3.56c0,0-44.27,79.48-79.77,131.23l-14.26-0.24C-119.19,89.39-46.69-22.34-40.15-45.16z"
		/>
	<path class="st2" d="M-25.43-25.25c0,0-46.75,82.97-66.47,114.88h-13.04L-25.17-41.6L-25.43-25.25z"/>
	<path class="st2" d="M-13.3-41.2l17.38,2.69c0,0-42.69,85.68-70.92,128.14l-16.85-0.24L-13.3-41.2z"/>
	<path class="st9" d="M-13.3-41.2c0,0-45.79,102.3-70.39,131.9l-8.21-1.07l66.47-114.88L-13.3-41.2z"/>
</g>
<g class="st0">
	<defs>
		<rect id="SVGID_1_" x="-308.53" y="-94.7" width="472.69" height="318.41"/>
	</defs>
	<clipPath id="SVGID_2_" class="st10">
		<use xlink:href="#SVGID_1_"  style="overflow:visible;"/>
	</clipPath>
	<g class="st11">
		<path class="st5" d="M-34.39,92.78c0,0-84.06,150.71-140.64,222.96h16.49c0,0,75.97-87.72,130.45-198.07L-34.39,92.78z"/>
		<path class="st5" d="M10.05,103.71c0,0-65.68,152.45-106,212.36h-10.26L-5.38,121.83L10.05,103.71z"/>
		<polygon class="st6" points="-47.92,127.44 -26.95,132.43 -27.32,155.3 -10.34,132.98 13.98,136.75 -2.47,121.83 10.05,103.71
			-13.11,111.06 -34.39,92.78 -28.09,117.68 		"/>
		<path class="st7" d="M-47.92,127.44l20.97,4.99c0,0-61.95,111.23-111.63,183.65l-19.95-0.33
			C-158.54,315.75-57.07,159.38-47.92,127.44z"/>
		<path class="st5" d="M-27.32,155.3c0,0-65.43,116.12-93.02,160.78h-18.25l111.63-183.65L-27.32,155.3z"/>
		<path class="st5" d="M-10.34,132.98l24.32,3.77c0,0-59.75,119.91-99.25,179.33l-23.58-0.33L-10.34,132.98z"/>
		<path class="st7" d="M-10.34,132.98c0,0-64.09,143.17-98.51,184.6l-11.49-1.49l93.02-160.78L-10.34,132.98z"/>
	</g>
</g>
</svg>
