<?xml version="1.0" encoding="utf-8"?>
<!-- Generator: Adobe Illustrator 21.0.2, SVG Export Plug-In . SVG Version: 6.00 Build 0)  -->
<svg version="1.1" id="Layer_1" xmlns="http://www.w3.org/2000/svg" xmlns:xlink="http://www.w3.org/1999/xlink" x="0px" y="0px"
	 width="204.7px" height="274px" viewBox="0 0 204.7 274" style="enable-background:new 0 0 204.7 274;" xml:space="preserve">
<style type="text/css">
	.st0{display:none;}
	.st1{display:inline;fill:#F4CC25;}
	.st2{display:inline;fill:#C19C00;}
	.st3{display:inline;fill:#FFDB43;}
	.st4{display:inline;fill:#FFE783;}
	.st5{display:inline;fill:#E5B900;}
	.st6{display:inline;fill:#EFCD41;}
	.st7{fill:#F4CC25;}
	.st8{fill:#FFE783;}
	.st9{fill:#FFDB43;}
	.st10{display:inline;}
	.st11{clip-path:url(#SVGID_2_);}
	.st12{fill:#C19C00;}
	.st13{fill:#E5B900;}
	.st14{fill:#EFCD41;}
</style>
<g class="st0">
	<path class="st1" d="M-73.8,57.7c0,0-60.1,107.7-100.5,159.3h11.8c0,0,54.3-62.7,93.2-141.5L-73.8,57.7z"/>
	<path class="st2" d="M-42,65.5c0,0-46.9,108.9-75.7,151.8h-7.3L-53,78.4L-42,65.5z"/>
	<polygon class="st3" points="-83.4,82.4 -68.5,86 -68.7,102.4 -56.6,86.4 -39.2,89.1 -51,78.4 -42,65.5 -58.6,70.8 -73.8,57.7
		-69.3,75.5 	"/>
	<path class="st4" d="M-83.4,82.4l15,3.6c0,0-44.3,79.5-79.8,131.2l-14.3-0.2C-162.5,217-90,105.3-83.4,82.4z"/>
	<path class="st1" d="M-68.7,102.4c0,0-46.8,83-66.5,114.9h-13L-68.5,86L-68.7,102.4z"/>
	<path class="st1" d="M-56.6,86.4l17.4,2.7c0,0-67.8,127.2-96,169.6l8.2-41.7L-56.6,86.4z"/>
	<path class="st4" d="M-56.6,86.4c0,0-45.8,102.3-70.4,131.9l-8.2-1.1l66.5-114.9L-56.6,86.4z"/>
</g>
<g class="st0">
	<path class="st2" d="M207.6,59.1c0,0-84.1,150.7-140.6,223h16.5c0,0,76-87.7,130.4-198.1L207.6,59.1z"/>
	<path class="st2" d="M252,70c0,0-65.7,152.4-106,212.4h-10.3L236.6,88.1L252,70z"/>
	<polygon class="st5" points="194.1,93.7 215,98.7 214.7,121.6 231.6,99.3 256,103.1 239.5,88.1 252,70 228.9,77.4 207.6,59.1
		213.9,84 	"/>
	<path class="st6" d="M194.1,93.7l21,5c0,0-61.9,111.2-111.6,183.7l-19.9-0.3C83.4,282,184.9,125.7,194.1,93.7z"/>
	<path class="st2" d="M214.7,121.6c0,0-65.4,116.1-93,160.8h-18.3L215,98.7L214.7,121.6z"/>
	<path class="st2" d="M231.6,99.3l24.3,3.8c0,0-59.8,119.9-99.3,179.3l-23.6-0.3L231.6,99.3z"/>
	<path class="st6" d="M231.6,99.3c0,0-64.1,141.3-98.5,182.8l-11.5,0.3l93-160.8L231.6,99.3z"/>
</g>
<g>
	<path class="st7" d="M176.6,0c0,0-141.9,225.7-174.7,267.7l12.4,0c0,0,135.1-190.3,166.7-254.3L176.6,0z"/>
	<path class="st7" d="M202.4,6.3c0,0-38.1,88.5-61.5,123.2h-6l58.5-112.7L202.4,6.3z"/>
	<path class="st8" d="M168.8,20.1l12.9,1.7c0,0-127,205.1-155.8,247.1l-13.8-2.5C12.1,266.4,163.5,38.7,168.8,20.1z"/>
	<path class="st7" d="M181.6,34.9c0,0-129.2,211.5-145.2,237.4l-9.5-9.3L180.9,23L181.6,34.9z"/>
	<path class="st7" d="M191.1,22.4l13.6,3.1c0,0-125,208.9-148,243.4h-9.5L191.1,22.4z"/>
	<path class="st8" d="M191.1,22.4c0,0-124.1,225.4-144.1,249.5l-9.3-5.9l143-229.7L191.1,22.4z"/>
	<polygon class="st9" points="168.8,20.1 180.9,23 180.7,36.3 190.6,23.3 204.7,25.5 195.1,16.9 202.4,6.3 189,10.6 176.6,0
		180.3,14.4 	"/>
</g>
<g class="st0">
	<path class="st2" d="M36.5-10.8c0,0-60.1,107.7-100.5,159.3h11.8C-52.2,148.5,2,85.8,41,7L36.5-10.8z"/>
	<path class="st2" d="M68.2-3c0,0-46.9,108.9-75.7,151.8h-7.3l72-138.8L68.2-3z"/>
	<polygon class="st5" points="26.8,13.9 41.8,17.5 41.5,33.8 53.6,17.9 71,20.6 59.3,9.9 68.2,-3 51.7,2.2 36.5,-10.8 41,6.9 	"/>
	<path class="st6" d="M26.8,13.9l15,3.6c0,0-44.3,79.5-79.8,131.2l-14.3-0.2C-52.2,148.5,20.3,36.8,26.8,13.9z"/>
	<path class="st2" d="M41.5,33.8c0,0-46.8,83-66.5,114.9h-13L41.8,17.5L41.5,33.8z"/>
	<path class="st2" d="M53.6,17.9L71,20.6c0,0-42.7,85.7-70.9,128.1l-16.8-0.2L53.6,17.9z"/>
	<path class="st6" d="M53.6,17.9c0,0-45.8,102.3-70.4,131.9l-8.2-1.1L41.5,33.8L53.6,17.9z"/>
</g>
<g class="st0">
	<g class="st10">
		<defs>
			<rect id="SVGID_1_" x="-241.6" y="-35.6" width="472.7" height="318.4"/>
		</defs>
		<clipPath id="SVGID_2_">
			<use xlink:href="#SVGID_1_"  style="overflow:visible;"/>
		</clipPath>
		<g class="st11">
			<path class="st12" d="M32.6,151.9c0,0-84.1,150.7-140.6,223h16.5c0,0,76-87.7,130.4-198.1L32.6,151.9z"/>
			<path class="st12" d="M77,162.8c0,0-65.7,152.4-106,212.4h-10.3L61.6,180.9L77,162.8z"/>
			<polygon class="st13" points="19,186.5 40,191.5 39.6,214.4 56.6,192.1 80.9,195.8 64.5,180.9 77,162.8 53.8,170.1 32.6,151.9
				38.9,176.8 			"/>
			<path class="st14" d="M19,186.5l21,5c0,0-62,111.2-111.6,183.6l-19.9-0.3C-91.6,374.8,9.9,218.5,19,186.5z"/>
			<path class="st12" d="M39.6,214.4c0,0-65.4,116.1-93,160.8h-18.3L40,191.5L39.6,214.4z"/>
			<path class="st12" d="M56.6,192.1l24.3,3.8c0,0-59.7,119.9-99.3,179.3l-23.6-0.3L56.6,192.1z"/>
			<path class="st14" d="M56.6,192.1c0,0-64.1,143.2-98.5,184.6l-11.5-1.5l93-160.8L56.6,192.1z"/>
		</g>
	</g>
</g>
</svg>
