<?xml version="1.0" encoding="utf-8"?>
<!-- Generator: Adobe Illustrator 21.0.2, SVG Export Plug-In . SVG Version: 6.00 Build 0)  -->
<svg version="1.1" id="Layer_1" xmlns="http://www.w3.org/2000/svg" xmlns:xlink="http://www.w3.org/1999/xlink" x="0px" y="0px"
	 width="188.9px" height="223px" viewBox="0 0 188.9 223" style="enable-background:new 0 0 188.9 223;" xml:space="preserve">
<style type="text/css">
	.st0{display:none;}
	.st1{display:inline;fill:#F4CC25;}
	.st2{display:inline;fill:#C19C00;}
	.st3{display:inline;fill:#FFDB43;}
	.st4{display:inline;fill:#FFE783;}
	.st5{display:inline;fill:#E5B900;}
	.st6{display:inline;fill:#EFCD41;}
	.st7{fill:#C19C00;}
	.st8{fill:#EFCD41;}
	.st9{fill:#E5B900;}
</style>
<g class="st0">
	<path class="st1" d="M34.3-94.1c0,0-60.1,107.7-100.5,159.3h11.8c0,0,54.3-62.7,93.2-141.5L34.3-94.1z"/>
	<path class="st2" d="M66.1-86.3c0,0-46.9,108.9-75.7,151.8H-17L55.1-73.4L66.1-86.3z"/>
	<polygon class="st3" points="24.7,-69.3 39.6,-65.8 39.4,-49.4 51.5,-65.4 68.9,-62.7 57.1,-73.3 66.1,-86.3 49.5,-81.1
		34.3,-94.1 38.8,-76.3 	"/>
	<path class="st4" d="M24.7-69.3l15,3.6c0,0-44.3,79.5-79.8,131.2l-14.3-0.2C-54.4,65.2,18.1-46.5,24.7-69.3z"/>
	<path class="st1" d="M39.4-49.4c0,0-46.7,83-66.5,114.9h-13L39.6-65.8L39.4-49.4z"/>
	<path class="st1" d="M51.5-65.4l17.4,2.7c0,0-67.8,127.2-96,169.6l8.2-41.7L51.5-65.4z"/>
	<path class="st4" d="M51.5-65.4c0,0-45.8,102.3-70.4,131.9l-8.2-1.1L39.4-49.4L51.5-65.4z"/>
</g>
<g class="st0">
	<path class="st2" d="M315.7-92.7c0,0-84.1,150.7-140.6,223h16.5c0,0,76-87.7,130.5-198.1L315.7-92.7z"/>
	<path class="st2" d="M360.1-81.8c0,0-65.7,152.4-106,212.4h-10.3L344.7-63.7L360.1-81.8z"/>
	<polygon class="st5" points="302.1,-58.1 323.1,-53.1 322.8,-30.2 339.7,-52.5 364,-48.8 347.6,-63.7 360.1,-81.8 337,-74.4
		315.7,-92.7 322,-67.8 	"/>
	<path class="st6" d="M302.1-58.1l21,5c0,0-62,111.2-111.6,183.6l-20-0.3C191.5,130.3,293-26.1,302.1-58.1z"/>
	<path class="st2" d="M322.8-30.2c0,0-65.4,116.1-93,160.8h-18.3L323.1-53.1L322.8-30.2z"/>
	<path class="st2" d="M339.7-52.5l24.3,3.8c0,0-59.8,119.9-99.3,179.3l-23.6-0.3L339.7-52.5z"/>
	<path class="st6" d="M339.7-52.5c0,0-64.1,141.3-98.5,182.8l-11.5,0.3l93-160.8L339.7-52.5z"/>
</g>
<g class="st0">
	<path class="st1" d="M284.7-151.8c0,0-95.5,156.1-128.4,198l7.9-2.5c0,0,92.6-117,124.2-181.1L284.7-151.8z"/>
	<path class="st1" d="M310.5-145.4c0,0-38.1,88.5-61.5,123.2H243l58.5-112.7L310.5-145.4z"/>
	<polygon class="st3" points="276.9,-131.7 289,-128.8 288.8,-115.5 298.7,-128.5 312.8,-126.3 303.2,-134.9 310.5,-145.4
		297.1,-141.2 284.7,-151.8 288.4,-137.4 	"/>
	<path class="st4" d="M276.9-131.7l12.2,2.9c0,0-79.8,133-108.6,175l-13.8-2.5C166.6,43.7,271.5-113.2,276.9-131.7z"/>
	<path class="st1" d="M288.8-115.5c0,0-91,156.9-107.1,182.8l-1.3-21.1l108.6-175L288.8-115.5z"/>
	<path class="st1" d="M298.7-128.5l14.1,2.2c0,0-87.3,161.1-110.2,195.6h-9.5L298.7-128.5z"/>
	<path class="st4" d="M298.7-128.5c0,0-87.6,175.1-107.6,199.2l-9.3-5.9l107.1-180.3L298.7-128.5z"/>
</g>
<g class="st0">
	<path class="st2" d="M144.6-162.6c0,0-60.1,107.7-100.5,159.3h11.8c0,0,54.3-62.7,93.2-141.5L144.6-162.6z"/>
	<path class="st2" d="M176.3-154.8c0,0-46.9,108.9-75.7,151.8h-7.3l72-138.8L176.3-154.8z"/>
	<polygon class="st5" points="134.9,-137.9 149.9,-134.3 149.6,-118 161.7,-133.9 179.1,-131.2 167.4,-141.9 176.3,-154.8
		159.8,-149.6 144.6,-162.6 149.1,-144.8 	"/>
	<path class="st6" d="M134.9-137.9l15,3.6c0,0-44.3,79.5-79.8,131.2L55.8-3.3C55.8-3.3,128.4-115.1,134.9-137.9z"/>
	<path class="st2" d="M149.6-118c0,0-46.8,83-66.5,114.9h-13l79.8-131.2L149.6-118z"/>
	<path class="st2" d="M161.7-133.9l17.4,2.7c0,0-42.7,85.7-70.9,128.1L91.3-3.3L161.7-133.9z"/>
	<path class="st6" d="M161.7-133.9c0,0-45.8,102.3-70.4,131.9l-8.2-1.1L149.6-118L161.7-133.9z"/>
</g>
<g>
	<g>
		<g>
			<path class="st7" d="M140.6,0.1c0,0-84.1,150.7-140.6,223h16.5c0,0,76.9-89.1,131.4-199.5L140.6,0.1z"/>
			<path class="st7" d="M185.1,11c0,0-65.7,152.4-106,212.4H68.8L169.6,29.1L185.1,11z"/>
			<path class="st8" d="M127.1,34.7l22.1,3.2c0,0-63.1,113-112.7,185.5l-20-0.3C16.5,223,118,66.7,127.1,34.7z"/>
			<path class="st7" d="M149.2,60c0,0-66.9,118.7-94.5,163.3H36.4L148.1,39.7L149.2,60z"/>
			<path class="st7" d="M165.5,38.7L189,44c0,0-59.8,119.9-99.3,179.3L66.2,223L165.5,38.7z"/>
			<path class="st8" d="M165.5,38.7c0,0-64.9,144.7-99.3,186.2l-11.5-1.5l93-160.8L165.5,38.7z"/>
			<polygon class="st9" points="127.1,34.7 148.1,39.7 147.7,62.6 164.7,40.3 189,44 172.6,29.1 185.1,11 161.9,18.4 140.6,0.1
				146.9,25 			"/>
		</g>
	</g>
</g>
</svg>
