<?xml version="1.0" encoding="utf-8"?>
<!-- Generator: Adobe Illustrator 21.0.2, SVG Export Plug-In . SVG Version: 6.00 Build 0)  -->
<svg version="1.1" id="Layer_1" xmlns="http://www.w3.org/2000/svg" xmlns:xlink="http://www.w3.org/1999/xlink" x="0px" y="0px"
	 width="270.8px" height="344.7px" viewBox="0 0 270.8 344.7" style="enable-background:new 0 0 270.8 344.7;" xml:space="preserve"
	>
<style type="text/css">
	.st0{display:none;}
	.st1{display:inline;fill:#F4CC25;}
	.st2{display:inline;fill:#C19C00;}
	.st3{display:inline;fill:#FFDB43;}
	.st4{display:inline;fill:#FFE783;}
	.st5{fill:#C19C00;}
	.st6{fill:#EFCD41;}
	.st7{fill:#E5B900;}
	.st8{display:inline;fill:#E5B900;}
	.st9{display:inline;fill:#EFCD41;}
	.st10{display:inline;}
	.st11{clip-path:url(#SVGID_2_);}
</style>
<g class="st0">
	<path class="st1" d="M-58.9-1.4c0,0-60.1,107.7-100.5,159.3h11.8c0,0,54.3-62.7,93.2-141.5L-58.9-1.4z"/>
	<path class="st2" d="M-27.1,6.4c0,0-46.9,108.9-75.7,151.8h-7.3l72.1-138.8L-27.1,6.4z"/>
	<polygon class="st3" points="-68.6,23.4 -53.6,26.9 -53.8,43.3 -41.7,27.3 -24.3,30 -36.1,19.4 -27.1,6.4 -43.7,11.7 -58.9,-1.4
		-54.4,16.4 	"/>
	<path class="st4" d="M-68.6,23.4l15,3.6c0,0-44.3,79.5-79.8,131.2l-14.3-0.2C-147.6,157.9-75.1,46.2-68.6,23.4z"/>
	<path class="st1" d="M-53.8,43.3c0,0-46.8,83-66.5,114.9h-13l79.8-131.2L-53.8,43.3z"/>
	<path class="st1" d="M-41.7,27.3l17.4,2.7c0,0-67.7,127.2-96,169.6l8.2-41.7L-41.7,27.3z"/>
	<path class="st4" d="M-41.7,27.3c0,0-45.8,102.3-70.4,131.9l-8.2-1.1l66.5-114.9L-41.7,27.3z"/>
</g>
<g>
	<path class="st5" d="M222.5,0C222.5,0,56.6,272.4,0,344.7h16.5c0,0,158.8-210.4,213.3-320.8L222.5,0z"/>
	<path class="st5" d="M266.9,10.9c0,0-79.3,152.5-119.6,212.4H137L251.5,29L266.9,10.9z"/>
	<path class="st6" d="M208.9,34.7l21.7,4.2c0,0-134.2,220.8-196.2,301.2l-19.9-0.3C14.5,339.7,199.8,66.6,208.9,34.7z"/>
	<path class="st5" d="M230.2,61.3c0,0-127.2,212.1-177.6,276.2H34.4l196.2-299L230.2,61.3z"/>
	<path class="st5" d="M246.5,39.2l24.3,4.8c0,0-143.6,228.5-183.1,287.9l-23.6-0.3L246.5,39.2z"/>
	<path class="st6" d="M247.1,38c0,0-115,218.6-182.8,295.9l-11.5,0.3L229.5,61.5L247.1,38z"/>
	<polygon class="st7" points="208.9,34.7 229.9,39.6 229.5,62.5 246.5,40.2 270.8,44 254.4,29 266.9,10.9 243.7,18.3 222.5,0
		228.8,24.9 	"/>
</g>
<g class="st0">
	<path class="st1" d="M191.5-59.1c0,0-95.5,156.1-128.4,198l7.9-2.5c0,0,92.6-117,124.2-181.1L191.5-59.1z"/>
	<path class="st1" d="M217.3-52.7c0,0-38.1,88.5-61.5,123.2h-6l58.5-112.7L217.3-52.7z"/>
	<polygon class="st3" points="183.6,-39 195.8,-36.1 195.6,-22.8 205.5,-35.8 219.6,-33.6 210,-42.2 217.3,-52.7 203.8,-48.5
		191.5,-59.1 195.2,-44.6 	"/>
	<path class="st4" d="M183.6-39l12.2,2.9c0,0-79.8,133-108.6,175l-13.8-2.5C73.4,136.4,178.3-20.4,183.6-39z"/>
	<path class="st1" d="M195.6-22.8c0,0-91.1,156.9-107.1,182.8l-1.3-21.1l108.6-175L195.6-22.8z"/>
	<path class="st1" d="M205.5-35.8l14.1,2.2c0,0-87.3,161.1-110.2,195.6h-9.5L205.5-35.8z"/>
	<path class="st4" d="M205.5-35.8c0,0-87.6,175.1-107.6,199.2l-9.3-5.9L195.6-22.8L205.5-35.8z"/>
</g>
<g class="st0">
	<path class="st2" d="M51.3-69.9c0,0-60.1,107.7-100.5,159.3h11.8c0,0,54.3-62.7,93.2-141.5L51.3-69.9z"/>
	<path class="st2" d="M83.1-62.1c0,0-46.9,108.9-75.7,151.8H0L72.1-49.2L83.1-62.1z"/>
	<polygon class="st8" points="41.7,-45.2 56.7,-41.6 56.4,-25.3 68.5,-41.2 85.9,-38.5 74.2,-49.2 83.1,-62.1 66.5,-56.9
		51.3,-69.9 55.8,-52.1 	"/>
	<path class="st9" d="M41.7-45.2l15,3.6c0,0-44.3,79.5-79.8,131.2l-14.3-0.2C-37.4,89.4,35.1-22.3,41.7-45.2z"/>
	<path class="st2" d="M56.4-25.3c0,0-46.8,83-66.5,114.9h-13L56.7-41.6L56.4-25.3z"/>
	<path class="st2" d="M68.5-41.2l17.4,2.7c0,0-42.7,85.7-70.9,128.1l-16.8-0.2L68.5-41.2z"/>
	<path class="st9" d="M68.5-41.2c0,0-45.8,102.3-70.4,131.9l-8.2-1.1L56.4-25.3L68.5-41.2z"/>
</g>
<g class="st0">
	<g class="st10">
		<defs>
			<rect id="SVGID_1_" x="-226.7" y="-94.7" width="472.7" height="318.4"/>
		</defs>
		<clipPath id="SVGID_2_">
			<use xlink:href="#SVGID_1_"  style="overflow:visible;"/>
		</clipPath>
		<g class="st11">
			<path class="st5" d="M47.4,92.8c0,0-84.1,150.7-140.6,223h16.5c0,0,76-87.7,130.4-198.1L47.4,92.8z"/>
			<path class="st5" d="M91.9,103.7c0,0-65.7,152.5-106,212.4h-10.3L76.4,121.8L91.9,103.7z"/>
			<polygon class="st7" points="33.9,127.4 54.9,132.4 54.5,155.3 71.5,133 95.8,136.8 79.4,121.8 91.9,103.7 68.7,111.1 47.4,92.8
				53.7,117.7 			"/>
			<path class="st6" d="M33.9,127.4l21,5c0,0-62,111.2-111.6,183.7l-19.9-0.3C-76.7,315.8,24.8,159.4,33.9,127.4z"/>
			<path class="st5" d="M54.5,155.3c0,0-65.4,116.1-93,160.8h-18.3L54.9,132.4L54.5,155.3z"/>
			<path class="st5" d="M71.5,133l24.3,3.8c0,0-59.7,119.9-99.3,179.3l-23.6-0.3L71.5,133z"/>
			<path class="st6" d="M71.5,133c0,0-64.1,143.2-98.5,184.6l-11.5-1.5l93-160.8L71.5,133z"/>
		</g>
	</g>
</g>
</svg>
