<?xml version="1.0" encoding="utf-8"?>
<!-- Generator: Adobe Illustrator 21.0.2, SVG Export Plug-In . SVG Version: 6.00 Build 0)  -->
<svg version="1.1" id="Layer_1" xmlns="http://www.w3.org/2000/svg" xmlns:xlink="http://www.w3.org/1999/xlink" x="0px" y="0px"
	 width="156.46px" height="222.5px" viewBox="0 0 156.46 222.5" style="enable-background:new 0 0 156.46 222.5;"
	 xml:space="preserve">
<style type="text/css">
	.st0{display:none;}
	.st1{display:inline;fill:#F4CC25;}
	.st2{display:inline;fill:#C19C00;}
	.st3{display:inline;fill:#FFDB43;}
	.st4{display:inline;fill:#FFE783;}
	.st5{display:inline;fill:#E5B900;}
	.st6{display:inline;fill:#EFCD41;}
	.st7{fill:#F4CC25;}
	.st8{fill:#FFDB43;}
	.st9{fill:#FFE783;}
	.st10{display:inline;}
	.st11{display:inline;clip-path:url(#SVGID_2_);}
	.st12{fill:#C19C00;}
	.st13{fill:#E5B900;}
	.st14{fill:#EFCD41;}
</style>
<g class="st0">
	<path class="st1" d="M-122,57.69c0,0-60.07,107.69-100.49,159.32h11.78c0,0,54.29-62.68,93.22-141.53L-122,57.69z"/>
	<path class="st2" d="M-90.25,65.5c0,0-46.93,108.93-75.74,151.75h-7.33l72.05-138.8L-90.25,65.5z"/>
	<polygon class="st3" points="-131.67,82.45 -116.69,86.01 -116.95,102.36 -104.82,86.41 -87.44,89.1 -99.2,78.44 -90.25,65.5
		-106.8,70.75 -122,57.69 -117.5,75.48 	"/>
	<path class="st4" d="M-131.67,82.45l14.98,3.56c0,0-44.27,79.48-79.77,131.23l-14.26-0.24
		C-210.71,217.01-138.21,105.28-131.67,82.45z"/>
	<path class="st1" d="M-116.95,102.36c0,0-46.75,82.97-66.47,114.88h-13.04l79.77-131.23L-116.95,102.36z"/>
	<path class="st1" d="M-104.82,86.41l17.38,2.69c0,0-67.75,127.17-95.98,169.62l8.21-41.72L-104.82,86.41z"/>
	<path class="st4" d="M-104.82,86.41c0,0-45.79,102.3-70.39,131.9l-8.21-1.07l66.47-114.88L-104.82,86.41z"/>
</g>
<g class="st0">
	<path class="st2" d="M159.35,59.09c0,0-84.06,150.71-140.64,222.96H35.2c0,0,75.97-87.72,130.45-198.07L159.35,59.09z"/>
	<path class="st2" d="M203.79,70.01c0,0-65.68,152.45-106,212.36H87.53L188.36,88.13L203.79,70.01z"/>
	<polygon class="st5" points="145.82,93.74 166.79,98.73 166.42,121.6 183.39,99.28 207.72,103.05 191.27,88.13 203.79,70.01
		180.63,77.36 159.35,59.09 165.65,83.98 	"/>
	<path class="st6" d="M145.82,93.74l20.97,4.99c0,0-61.95,111.23-111.63,183.65l-19.95-0.33C35.2,282.05,136.67,125.68,145.82,93.74
		z"/>
	<path class="st2" d="M166.42,121.6c0,0-65.43,116.12-93.02,160.78H55.15L166.79,98.73L166.42,121.6z"/>
	<path class="st2" d="M183.39,99.28l24.32,3.77c0,0-59.75,119.91-99.25,179.33l-23.58-0.33L183.39,99.28z"/>
	<path class="st6" d="M183.39,99.28c0,0-64.09,141.34-98.51,182.77l-11.49,0.33l93.02-160.78L183.39,99.28z"/>
</g>
<g>
	<path class="st7" d="M128.38,0c0,0-95.55,156.07-128.38,198l7.87-2.48c0,0,92.56-117.03,124.17-181.07L128.38,0z"/>
	<path class="st7" d="M154.17,6.34c0,0-38.12,88.47-61.51,123.24H86.7l58.51-112.73L154.17,6.34z"/>
	<polygon class="st8" points="120.53,20.11 132.7,23.01 132.49,36.28 142.34,23.32 156.46,25.51 146.91,16.86 154.17,6.34
		140.73,10.61 128.38,0 132.04,14.45 	"/>
	<path class="st9" d="M120.53,20.11l12.17,2.89c0,0-79.76,132.97-108.6,174.99l-13.82-2.48C10.29,195.52,115.22,38.65,120.53,20.11z
		"/>
	<path class="st7" d="M132.49,36.28c0,0-91.05,156.92-107.06,182.84L24.11,198L132.7,23.01L132.49,36.28z"/>
	<path class="st7" d="M142.34,23.32l14.12,2.19c0,0-87.27,161.1-110.19,195.58h-9.5L142.34,23.32z"/>
	<path class="st9" d="M142.34,23.32c0,0-87.61,175.13-107.58,199.17l-9.33-5.89L132.49,36.28L142.34,23.32z"/>
</g>
<g class="st0">
	<path class="st2" d="M-11.77-10.84c0,0-60.07,107.69-100.49,159.32h11.78c0,0,54.29-62.68,93.22-141.53L-11.77-10.84z"/>
	<path class="st2" d="M19.98-3.03c0,0-46.93,108.93-75.74,151.75h-7.33L8.96,9.92L19.98-3.03z"/>
	<polygon class="st5" points="-21.44,13.93 -6.46,17.49 -6.72,33.83 5.41,17.88 22.79,20.58 11.04,9.92 19.98,-3.03 3.43,2.22
		-11.77,-10.84 -7.27,6.95 	"/>
	<path class="st6" d="M-21.44,13.93l14.98,3.56c0,0-44.27,79.48-79.77,131.23l-14.26-0.24C-100.48,148.48-27.98,36.75-21.44,13.93z"
		/>
	<path class="st2" d="M-6.72,33.83c0,0-46.75,82.97-66.47,114.88h-13.04L-6.46,17.49L-6.72,33.83z"/>
	<path class="st2" d="M5.41,17.88l17.38,2.69c0,0-42.69,85.68-70.92,128.14l-16.85-0.24L5.41,17.88z"/>
	<path class="st6" d="M5.41,17.88c0,0-45.79,102.3-70.39,131.9l-8.21-1.07L-6.72,33.83L5.41,17.88z"/>
</g>
<g class="st0">
	<defs>
		<rect id="SVGID_1_" x="-289.82" y="-35.61" width="472.69" height="318.41"/>
	</defs>
	<clipPath id="SVGID_2_" class="st10">
		<use xlink:href="#SVGID_1_"  style="overflow:visible;"/>
	</clipPath>
	<g class="st11">
		<path class="st12" d="M-15.68,151.87c0,0-84.06,150.71-140.64,222.96h16.49c0,0,75.97-87.72,130.45-198.07L-15.68,151.87z"/>
		<path class="st12" d="M28.76,162.8c0,0-65.68,152.45-106,212.36H-87.5L13.33,180.92L28.76,162.8z"/>
		<polygon class="st13" points="-29.21,186.52 -8.24,191.51 -8.61,214.39 8.36,192.06 32.69,195.83 16.24,180.92 28.76,162.8
			5.6,170.15 -15.68,151.87 -9.38,176.76 		"/>
		<path class="st14" d="M-29.21,186.52l20.97,4.99c0,0-61.95,111.23-111.63,183.65l-19.95-0.33
			C-139.83,374.83-38.36,218.47-29.21,186.52z"/>
		<path class="st12" d="M-8.61,214.39c0,0-65.43,116.12-93.02,160.78h-18.25L-8.24,191.51L-8.61,214.39z"/>
		<path class="st12" d="M8.36,192.06l24.32,3.77c0,0-59.75,119.91-99.25,179.33l-23.58-0.33L8.36,192.06z"/>
		<path class="st14" d="M8.36,192.06c0,0-64.09,143.17-98.51,184.6l-11.49-1.49l93.02-160.78L8.36,192.06z"/>
	</g>
</g>
</svg>
