<?xml version="1.0" encoding="utf-8"?>
<!-- Generator: Adobe Illustrator 21.0.2, SVG Export Plug-In . SVG Version: 6.00 Build 0)  -->
<svg version="1.1" id="Layer_1" xmlns="http://www.w3.org/2000/svg" xmlns:xlink="http://www.w3.org/1999/xlink" x="0px" y="0px"
	 width="135.06px" height="201.04px" viewBox="0 0 135.06 201.04" style="enable-background:new 0 0 135.06 201.04;"
	 xml:space="preserve">
<style type="text/css">
	.st0{fill:#F4CC25;}
	.st1{fill:#C19C00;}
	.st2{fill:#FFDB43;}
	.st3{fill:#FFE783;}
	.st4{display:none;}
	.st5{display:inline;fill:#C19C00;}
	.st6{display:inline;fill:#E5B900;}
	.st7{display:inline;fill:#EFCD41;}
	.st8{display:inline;fill:#F4CC25;}
	.st9{display:inline;fill:#FFDB43;}
	.st10{display:inline;fill:#FFE783;}
	.st11{display:inline;}
	.st12{display:inline;clip-path:url(#SVGID_2_);}
	.st13{fill:#E5B900;}
	.st14{fill:#EFCD41;}
</style>
<g>
	<path class="st0" d="M100.49,0c0,0-60.07,107.69-100.49,159.32h11.78c0,0,54.29-62.68,93.22-141.53L100.49,0z"/>
	<path class="st1" d="M132.25,7.81c0,0-46.93,108.93-75.74,151.75h-7.33l72.05-138.8L132.25,7.81z"/>
	<polygon class="st2" points="90.83,24.76 105.81,28.33 105.55,44.67 117.68,28.72 135.06,31.41 123.3,20.76 132.25,7.81
		115.7,13.06 100.49,0 105,17.79 	"/>
	<path class="st3" d="M90.83,24.76l14.98,3.56c0,0-44.27,79.48-79.77,131.23l-14.26-0.24C11.78,159.32,84.29,47.59,90.83,24.76z"/>
	<path class="st0" d="M105.55,44.67c0,0-46.75,82.97-66.47,114.88H26.04l79.77-131.23L105.55,44.67z"/>
	<path class="st0" d="M117.68,28.72l17.38,2.69c0,0-67.75,127.17-95.98,169.62l8.21-41.72L117.68,28.72z"/>
	<path class="st3" d="M117.68,28.72c0,0-45.79,102.3-70.39,131.9l-8.21-1.07l66.47-114.88L117.68,28.72z"/>
</g>
<g class="st4">
	<path class="st5" d="M381.85,1.4c0,0-84.06,150.71-140.64,222.96h16.49c0,0,75.97-87.72,130.45-198.07L381.85,1.4z"/>
	<path class="st5" d="M426.28,12.32c0,0-65.68,152.45-106,212.36h-10.26L410.85,30.44L426.28,12.32z"/>
	<polygon class="st6" points="368.32,36.05 389.28,41.04 388.92,63.91 405.89,41.59 430.22,45.36 413.77,30.44 426.28,12.32
		403.12,19.67 381.85,1.4 388.15,26.29 	"/>
	<path class="st7" d="M368.32,36.05l20.97,4.99c0,0-61.95,111.23-111.63,183.65l-19.95-0.33C257.7,224.36,359.17,67.99,368.32,36.05
		z"/>
	<path class="st5" d="M388.92,63.91c0,0-65.43,116.12-93.02,160.78h-18.25L389.28,41.04L388.92,63.91z"/>
	<path class="st5" d="M405.89,41.59l24.32,3.77c0,0-59.75,119.91-99.25,179.33l-23.58-0.33L405.89,41.59z"/>
	<path class="st7" d="M405.89,41.59c0,0-64.09,141.34-98.51,182.77l-11.49,0.33l93.02-160.78L405.89,41.59z"/>
</g>
<g class="st4">
	<path class="st8" d="M350.88-57.69c0,0-95.55,156.07-128.38,198l7.87-2.48c0,0,92.56-117.03,124.17-181.07L350.88-57.69z"/>
	<path class="st8" d="M376.67-51.35c0,0-38.12,88.47-61.51,123.24h-5.95l58.51-112.73L376.67-51.35z"/>
	<polygon class="st9" points="343.03,-37.58 355.2,-34.68 354.99,-21.41 364.84,-34.36 378.95,-32.18 369.41,-40.83 376.67,-51.35
		363.23,-47.08 350.88,-57.69 354.54,-43.24 	"/>
	<path class="st10" d="M343.03-37.58l12.17,2.89c0,0-79.76,132.97-108.6,174.99l-13.82-2.48
		C232.78,137.83,337.72-19.04,343.03-37.58z"/>
	<path class="st8" d="M354.99-21.41c0,0-91.05,156.92-107.06,182.84l-1.32-21.12L355.2-34.68L354.99-21.41z"/>
	<path class="st8" d="M364.84-34.36l14.12,2.19c0,0-87.27,161.1-110.19,195.58h-9.5L364.84-34.36z"/>
	<path class="st10" d="M364.84-34.36c0,0-87.61,175.13-107.58,199.17l-9.33-5.89L354.99-21.41L364.84-34.36z"/>
</g>
<g class="st4">
	<path class="st5" d="M210.73-68.53c0,0-60.07,107.69-100.49,159.32h11.78c0,0,54.29-62.68,93.22-141.53L210.73-68.53z"/>
	<path class="st5" d="M242.48-60.72c0,0-46.93,108.93-75.74,151.75h-7.33l72.05-138.8L242.48-60.72z"/>
	<polygon class="st6" points="201.06,-43.76 216.04,-40.2 215.78,-23.85 227.91,-39.81 245.29,-37.11 233.54,-47.77 242.48,-60.72
		225.93,-55.47 210.73,-68.53 215.23,-50.74 	"/>
	<path class="st7" d="M201.06-43.76l14.98,3.56c0,0-44.27,79.48-79.77,131.23l-14.26-0.24C122.02,90.79,194.52-20.94,201.06-43.76z"
		/>
	<path class="st5" d="M215.78-23.85c0,0-46.75,82.97-66.47,114.88h-13.04L216.04-40.2L215.78-23.85z"/>
	<path class="st5" d="M227.91-39.81l17.38,2.69c0,0-42.69,85.68-70.92,128.14l-16.85-0.24L227.91-39.81z"/>
	<path class="st7" d="M227.91-39.81c0,0-45.79,102.3-70.39,131.9l-8.21-1.07l66.47-114.88L227.91-39.81z"/>
</g>
<g class="st4">
	<defs>
		<rect id="SVGID_1_" x="-67.32" y="-93.3" width="472.69" height="318.41"/>
	</defs>
	<clipPath id="SVGID_2_" class="st11">
		<use xlink:href="#SVGID_1_"  style="overflow:visible;"/>
	</clipPath>
	<g class="st12">
		<path class="st1" d="M206.82,94.18c0,0-84.06,150.71-140.64,222.96h16.49c0,0,75.97-87.72,130.45-198.07L206.82,94.18z"/>
		<path class="st1" d="M251.25,105.11c0,0-65.68,152.45-106,212.36h-10.26l100.83-194.25L251.25,105.11z"/>
		<polygon class="st13" points="193.29,128.84 214.25,133.82 213.89,156.7 230.86,134.37 255.19,138.14 238.74,123.23
			251.25,105.11 228.09,112.46 206.82,94.18 213.12,119.08 		"/>
		<path class="st14" d="M193.29,128.84l20.97,4.99c0,0-61.95,111.23-111.63,183.65l-19.95-0.33
			C82.67,317.14,184.14,160.78,193.29,128.84z"/>
		<path class="st1" d="M213.89,156.7c0,0-65.43,116.12-93.02,160.78h-18.25l111.63-183.65L213.89,156.7z"/>
		<path class="st1" d="M230.86,134.37l24.32,3.77c0,0-59.75,119.91-99.25,179.33l-23.58-0.33L230.86,134.37z"/>
		<path class="st14" d="M230.86,134.37c0,0-64.09,143.17-98.51,184.6l-11.49-1.49l93.02-160.78L230.86,134.37z"/>
	</g>
</g>
</svg>
