<?xml version="1.0" encoding="utf-8"?>
<!-- Generator: Adobe Illustrator 21.0.2, SVG Export Plug-In . SVG Version: 6.00 Build 0)  -->
<svg version="1.1" id="Layer_1" xmlns="http://www.w3.org/2000/svg" xmlns:xlink="http://www.w3.org/1999/xlink" x="0px" y="0px"
	 width="135.06px" height="160.62px" viewBox="0 0 135.06 160.62" style="enable-background:new 0 0 135.06 160.62;"
	 xml:space="preserve">
<style type="text/css">
	.st0{display:none;}
	.st1{display:inline;fill:#F4CC25;}
	.st2{display:inline;fill:#C19C00;}
	.st3{display:inline;fill:#FFDB43;}
	.st4{display:inline;fill:#FFE783;}
	.st5{display:inline;fill:#E5B900;}
	.st6{display:inline;fill:#EFCD41;}
	.st7{fill:#C19C00;}
	.st8{fill:#E5B900;}
	.st9{fill:#EFCD41;}
	.st10{display:inline;}
	.st11{display:inline;clip-path:url(#SVGID_2_);}
</style>
<g class="st0">
	<path class="st1" d="M-9.74,68.53c0,0-60.07,107.69-100.49,159.32h11.78c0,0,54.29-62.68,93.22-141.53L-9.74,68.53z"/>
	<path class="st2" d="M22.01,76.33c0,0-46.93,108.93-75.74,151.75h-7.33l72.05-138.8L22.01,76.33z"/>
	<polygon class="st3" points="-19.41,93.29 -4.42,96.85 -4.68,113.2 7.44,97.25 24.82,99.94 13.07,89.28 22.01,76.33 5.47,81.59
		-9.74,68.53 -5.23,86.31 	"/>
	<path class="st4" d="M-19.41,93.29l14.98,3.56c0,0-44.27,79.48-79.77,131.23l-14.26-0.24C-98.45,227.84-25.94,116.11-19.41,93.29z"
		/>
	<path class="st1" d="M-4.68,113.2c0,0-46.75,82.97-66.47,114.88h-13.04L-4.42,96.85L-4.68,113.2z"/>
	<path class="st1" d="M7.44,97.25l17.38,2.69c0,0-67.75,127.17-95.98,169.62l8.21-41.72L7.44,97.25z"/>
	<path class="st4" d="M7.44,97.25c0,0-45.79,102.3-70.39,131.9l-8.21-1.07L-4.68,113.2L7.44,97.25z"/>
</g>
<g class="st0">
	<path class="st2" d="M271.61,69.92c0,0-84.06,150.71-140.64,222.96h16.49c0,0,75.97-87.72,130.45-198.07L271.61,69.92z"/>
	<path class="st2" d="M316.05,80.85c0,0-65.68,152.45-106,212.36h-10.26L300.62,98.97L316.05,80.85z"/>
	<polygon class="st5" points="258.08,104.58 279.05,109.56 278.69,132.44 295.66,110.11 319.98,113.88 303.53,98.97 316.05,80.85
		292.89,88.2 271.61,69.92 277.92,94.82 	"/>
	<path class="st6" d="M258.08,104.58l20.97,4.99c0,0-61.95,111.23-111.63,183.65l-19.95-0.33
		C147.47,292.88,248.93,136.52,258.08,104.58z"/>
	<path class="st2" d="M278.69,132.44c0,0-65.43,116.12-93.02,160.78h-18.25l111.63-183.65L278.69,132.44z"/>
	<path class="st2" d="M295.66,110.11l24.32,3.77c0,0-59.75,119.91-99.25,179.33l-23.58-0.33L295.66,110.11z"/>
	<path class="st6" d="M295.66,110.11c0,0-64.09,141.34-98.51,182.77l-11.49,0.33l93.02-160.78L295.66,110.11z"/>
</g>
<g class="st0">
	<path class="st1" d="M240.65,10.84c0,0-95.55,156.07-128.38,198l7.87-2.48c0,0,92.56-117.03,124.17-181.07L240.65,10.84z"/>
	<path class="st1" d="M266.44,17.18c0,0-38.12,88.47-61.51,123.24h-5.95l58.51-112.73L266.44,17.18z"/>
	<polygon class="st3" points="232.8,30.95 244.97,33.84 244.76,47.12 254.61,34.16 268.72,36.35 259.18,27.69 266.44,17.18
		253,21.44 240.65,10.84 244.31,25.28 	"/>
	<path class="st4" d="M232.8,30.95l12.17,2.89c0,0-79.76,132.97-108.6,174.99l-13.82-2.48C122.55,206.36,227.49,49.48,232.8,30.95z"
		/>
	<path class="st1" d="M244.76,47.12c0,0-91.05,156.92-107.06,182.84l-1.32-21.12l108.6-174.99L244.76,47.12z"/>
	<path class="st1" d="M254.61,34.16l14.12,2.19c0,0-87.27,161.1-110.19,195.58h-9.5L254.61,34.16z"/>
	<path class="st4" d="M254.61,34.16c0,0-87.61,175.13-107.58,199.17l-9.33-5.89L244.76,47.12L254.61,34.16z"/>
</g>
<g>
	<path class="st7" d="M100.49,0c0,0-60.07,107.69-100.49,159.32h11.78c0,0,54.29-62.68,93.22-141.53L100.49,0z"/>
	<path class="st7" d="M132.25,7.81c0,0-46.93,108.93-75.74,151.75h-7.33l72.05-138.8L132.25,7.81z"/>
	<polygon class="st8" points="90.83,24.76 105.81,28.33 105.55,44.67 117.68,28.72 135.06,31.41 123.3,20.76 132.25,7.81
		115.7,13.06 100.49,0 105,17.79 	"/>
	<path class="st9" d="M90.83,24.76l14.98,3.56c0,0-44.27,79.48-79.77,131.23l-14.26-0.24C11.78,159.32,84.29,47.59,90.83,24.76z"/>
	<path class="st7" d="M105.55,44.67c0,0-46.75,82.97-66.47,114.88H26.04l79.77-131.23L105.55,44.67z"/>
	<path class="st7" d="M117.68,28.72l17.38,2.69c0,0-42.69,85.68-70.92,128.14l-16.85-0.24L117.68,28.72z"/>
	<path class="st9" d="M117.68,28.72c0,0-45.79,102.3-70.39,131.9l-8.21-1.07l66.47-114.88L117.68,28.72z"/>
</g>
<g class="st0">
	<defs>
		<rect id="SVGID_1_" x="-177.55" y="-24.78" width="472.69" height="318.41"/>
	</defs>
	<clipPath id="SVGID_2_" class="st10">
		<use xlink:href="#SVGID_1_"  style="overflow:visible;"/>
	</clipPath>
	<g class="st11">
		<path class="st7" d="M96.58,162.71c0,0-84.06,150.71-140.64,222.96h16.49c0,0,75.97-87.72,130.45-198.07L96.58,162.71z"/>
		<path class="st7" d="M141.02,173.64c0,0-65.68,152.45-106,212.36H24.76l100.83-194.25L141.02,173.64z"/>
		<polygon class="st8" points="83.05,197.36 104.02,202.35 103.66,225.22 120.63,202.9 144.95,206.67 128.5,191.75 141.02,173.64
			117.86,180.98 96.58,162.71 102.89,187.6 		"/>
		<path class="st9" d="M83.05,197.36l20.97,4.99c0,0-61.95,111.23-111.63,183.65l-19.95-0.33C-27.57,385.67,73.9,229.3,83.05,197.36
			z"/>
		<path class="st7" d="M103.66,225.22c0,0-65.43,116.12-93.02,160.78H-7.61l111.63-183.65L103.66,225.22z"/>
		<path class="st7" d="M120.63,202.9l24.32,3.77c0,0-59.75,119.91-99.25,179.33l-23.58-0.33L120.63,202.9z"/>
		<path class="st9" d="M120.63,202.9c0,0-64.09,143.17-98.51,184.6L10.63,386l93.02-160.78L120.63,202.9z"/>
	</g>
</g>
</svg>
