<?xml version="1.0" encoding="utf-8"?>
<!-- Generator: Adobe Illustrator 21.0.2, SVG Export Plug-In . SVG Version: 6.00 Build 0)  -->
<svg version="1.1" id="Layer_1" xmlns="http://www.w3.org/2000/svg" xmlns:xlink="http://www.w3.org/1999/xlink" x="0px" y="0px"
	 width="198.9px" height="257px" viewBox="0 0 198.9 257" style="enable-background:new 0 0 198.9 257;" xml:space="preserve">
<style type="text/css">
	.st0{display:none;}
	.st1{display:inline;fill:#F4CC25;}
	.st2{display:inline;fill:#C19C00;}
	.st3{display:inline;fill:#FFDB43;}
	.st4{display:inline;fill:#FFE783;}
	.st5{display:inline;fill:#E5B900;}
	.st6{display:inline;fill:#EFCD41;}
	.st7{fill:#C19C00;}
	.st8{fill:#EFCD41;}
	.st9{fill:#E5B900;}
	.st10{display:inline;}
	.st11{clip-path:url(#SVGID_2_);}
</style>
<g class="st0">
	<path class="st1" d="M54.1,68.5c0,0-60.1,107.7-100.5,159.3h11.8c0,0,54.3-62.7,93.2-141.5L54.1,68.5z"/>
	<path class="st2" d="M85.9,76.3c0,0-46.9,108.9-75.7,151.8H2.8L74.8,89.3L85.9,76.3z"/>
	<polygon class="st3" points="44.4,93.3 59.4,96.8 59.2,113.2 71.3,97.3 88.7,99.9 76.9,89.3 85.9,76.3 69.3,81.6 54.1,68.5
		58.6,86.3 	"/>
	<path class="st4" d="M44.4,93.3l15,3.6c0,0-44.3,79.5-79.8,131.2l-14.3-0.2C-34.6,227.8,37.9,116.1,44.4,93.3z"/>
	<path class="st1" d="M59.2,113.2c0,0-46.8,83-66.5,114.9h-13L59.4,96.8L59.2,113.2z"/>
	<path class="st1" d="M71.3,97.3l17.4,2.7c0,0-67.8,127.2-96,169.6l8.2-41.7L71.3,97.3z"/>
	<path class="st4" d="M71.3,97.3c0,0-45.8,102.3-70.4,131.9l-8.2-1.1l66.5-114.9L71.3,97.3z"/>
</g>
<g class="st0">
	<path class="st2" d="M335.5,69.9c0,0-84.1,150.7-140.6,223h16.5c0,0,76-87.7,130.4-198.1L335.5,69.9z"/>
	<path class="st2" d="M379.9,80.8c0,0-65.7,152.4-106,212.4h-10.3L364.5,99L379.9,80.8z"/>
	<polygon class="st5" points="321.9,104.6 342.9,109.6 342.5,132.4 359.5,110.1 383.8,113.9 367.4,99 379.9,80.8 356.7,88.2
		335.5,69.9 341.8,94.8 	"/>
	<path class="st6" d="M321.9,104.6l21,5c0,0-62,111.2-111.6,183.6l-19.9-0.3C211.3,292.9,312.8,136.5,321.9,104.6z"/>
	<path class="st2" d="M342.5,132.4c0,0-65.4,116.1-93,160.8h-18.3l111.6-183.6L342.5,132.4z"/>
	<path class="st2" d="M359.5,110.1l24.3,3.8c0,0-59.8,119.9-99.3,179.3l-23.6-0.3L359.5,110.1z"/>
	<path class="st6" d="M359.5,110.1c0,0-64.1,141.3-98.5,182.8l-11.5,0.3l93-160.8L359.5,110.1z"/>
</g>
<g class="st0">
	<path class="st1" d="M304.5,10.8c0,0-95.6,156.1-128.4,198l7.9-2.5c0,0,92.6-117,124.2-181.1L304.5,10.8z"/>
	<path class="st1" d="M330.3,17.2c0,0-38.1,88.5-61.5,123.2h-5.9l58.5-112.7L330.3,17.2z"/>
	<polygon class="st3" points="296.6,31 308.8,33.8 308.6,47.1 318.5,34.2 332.6,36.3 323,27.7 330.3,17.2 316.8,21.4 304.5,10.8
		308.2,25.3 	"/>
	<path class="st4" d="M296.6,31l12.2,2.9c0,0-79.8,133-108.6,175l-13.8-2.5C186.4,206.4,291.3,49.5,296.6,31z"/>
	<path class="st1" d="M308.6,47.1c0,0-91.1,156.9-107.1,182.8l-1.3-21.1l108.6-175L308.6,47.1z"/>
	<path class="st1" d="M318.5,34.2l14.1,2.2c0,0-87.3,161.1-110.2,195.6h-9.5L318.5,34.2z"/>
	<path class="st4" d="M318.5,34.2c0,0-87.6,175.1-107.6,199.2l-9.3-5.9L308.6,47.1L318.5,34.2z"/>
</g>
<g>
	<path class="st7" d="M164.3,0C164.3,0,40.4,201.6,0,253.2h11.8c0,0,119.9-157.5,158.9-236.4L164.3,0z"/>
	<path class="st7" d="M196.1,7.8c0,0-50.6,108.9-79.4,151.8h-7.3l75.7-138.8L196.1,7.8z"/>
	<path class="st8" d="M154.7,24.8l17,1.7c0,0-110.1,172.6-145.6,224.3l-14.3-0.2C11.8,250.6,148.1,47.6,154.7,24.8z"/>
	<path class="st7" d="M172.4,39.9c0,0-117.6,185.2-137.3,217.1h-13L169.7,28.3L172.4,39.9z"/>
	<path class="st7" d="M182.3,27.5l16.6,3.9c0,0-112.6,177.1-140.8,219.5l-16.8-0.2L182.3,27.5z"/>
	<path class="st8" d="M183.2,26.5c0,0-117.1,198.2-141.7,227.8l-8.2-1.1L169.4,44.7L183.2,26.5z"/>
	<polygon class="st9" points="154.7,24.8 169.7,28.3 169.4,44.7 181.5,28.7 198.9,31.4 187.1,20.8 196.1,7.8 179.5,13.1 164.3,0
		168.8,17.8 	"/>
</g>
<g class="st0">
	<g class="st10">
		<defs>
			<rect id="SVGID_1_" x="-113.7" y="-24.8" width="472.7" height="318.4"/>
		</defs>
		<clipPath id="SVGID_2_">
			<use xlink:href="#SVGID_1_"  style="overflow:visible;"/>
		</clipPath>
		<g class="st11">
			<path class="st7" d="M160.4,162.7c0,0-84.1,150.7-140.6,223h16.5c0,0,76-87.7,130.4-198.1L160.4,162.7z"/>
			<path class="st7" d="M204.9,173.6c0,0-65.7,152.4-106,212.4H88.6l100.8-194.3L204.9,173.6z"/>
			<polygon class="st9" points="146.9,197.4 167.9,202.4 167.5,225.2 184.5,202.9 208.8,206.7 192.3,191.8 204.9,173.6 181.7,181
				160.4,162.7 166.7,187.6 			"/>
			<path class="st8" d="M146.9,197.4l21,5c0,0-61.9,111.2-111.6,183.6l-20-0.3C36.3,385.7,137.7,229.3,146.9,197.4z"/>
			<path class="st7" d="M167.5,225.2c0,0-65.4,116.1-93,160.8H56.2l111.6-183.6L167.5,225.2z"/>
			<path class="st7" d="M184.5,202.9l24.3,3.8c0,0-59.8,119.9-99.2,179.3L86,385.7L184.5,202.9z"/>
			<path class="st8" d="M184.5,202.9c0,0-64.1,143.2-98.5,184.6L74.5,386l93-160.8L184.5,202.9z"/>
		</g>
	</g>
</g>
</svg>
