<?xml version="1.0" encoding="utf-8"?>
<!-- Generator: Adobe Illustrator 21.0.2, SVG Export Plug-In . SVG Version: 6.00 Build 0)  -->
<svg version="1.1" id="Layer_1" xmlns="http://www.w3.org/2000/svg" xmlns:xlink="http://www.w3.org/1999/xlink" x="0px" y="0px"
	 width="125.78px" height="131px" viewBox="0 0 125.78 131" style="enable-background:new 0 0 125.78 131;" xml:space="preserve">
<style type="text/css">
	.st0{display:none;}
	.st1{display:inline;fill:#F4CC25;}
	.st2{display:inline;fill:#C19C00;}
	.st3{display:inline;fill:#FFDB43;}
	.st4{display:inline;fill:#FFE783;}
	.st5{display:inline;fill:#E5B900;}
	.st6{display:inline;fill:#EFCD41;}
	.st7{clip-path:url(#SVGID_2_);}
	.st8{fill:#C19C00;}
	.st9{fill:#E5B900;}
	.st10{fill:#EFCD41;}
</style>
<g class="st0">
	<path class="st1" d="M-28.75-94.11c0,0-60.07,107.69-100.49,159.32h11.78c0,0,54.29-62.68,93.22-141.53L-28.75-94.11z"/>
	<path class="st2" d="M3-86.3c0,0-46.93,108.93-75.74,151.75h-7.33l72.05-138.8L3-86.3z"/>
	<polygon class="st3" points="-38.42,-69.34 -23.44,-65.78 -23.7,-49.43 -11.57,-65.39 5.81,-62.69 -5.94,-73.35 3,-86.3
		-13.55,-81.05 -28.75,-94.11 -24.25,-76.32 	"/>
	<path class="st4" d="M-38.42-69.34l14.98,3.56c0,0-44.27,79.48-79.77,131.23l-14.26-0.24C-117.46,65.21-44.96-46.52-38.42-69.34z"
		/>
	<path class="st1" d="M-23.7-49.43c0,0-46.75,82.97-66.47,114.88h-13.04l79.77-131.23L-23.7-49.43z"/>
	<path class="st1" d="M-11.57-65.39l17.38,2.69c0,0-67.75,127.17-95.98,169.62l8.21-41.72L-11.57-65.39z"/>
	<path class="st4" d="M-11.57-65.39c0,0-45.79,102.3-70.39,131.9l-8.21-1.07L-23.7-49.43L-11.57-65.39z"/>
</g>
<g class="st0">
	<path class="st2" d="M252.6-92.71c0,0-84.06,150.71-140.64,222.96h16.49c0,0,75.97-87.72,130.45-198.07L252.6-92.71z"/>
	<path class="st2" d="M297.04-81.78c0,0-65.68,152.45-106,212.36h-10.26L281.61-63.66L297.04-81.78z"/>
	<polygon class="st5" points="239.07,-58.06 260.04,-53.07 259.68,-30.19 276.65,-52.52 300.97,-48.75 284.52,-63.66 297.04,-81.78
		273.88,-74.43 252.6,-92.71 258.91,-67.82 	"/>
	<path class="st6" d="M239.07-58.06l20.97,4.99c0,0-61.95,111.23-111.63,183.65l-19.95-0.33
		C128.45,130.25,229.92-26.11,239.07-58.06z"/>
	<path class="st2" d="M259.68-30.19c0,0-65.43,116.12-93.02,160.78h-18.25L260.04-53.07L259.68-30.19z"/>
	<path class="st2" d="M276.65-52.52l24.32,3.77c0,0-59.75,119.91-99.25,179.33l-23.58-0.33L276.65-52.52z"/>
	<path class="st6" d="M276.65-52.52c0,0-64.09,141.34-98.51,182.77l-11.49,0.33l93.02-160.78L276.65-52.52z"/>
</g>
<g class="st0">
	<path class="st1" d="M221.64-151.79c0,0-95.55,156.07-128.38,198l7.87-2.48c0,0,92.56-117.03,124.17-181.07L221.64-151.79z"/>
	<path class="st1" d="M247.43-145.45c0,0-38.12,88.47-61.51,123.24h-5.95l58.51-112.73L247.43-145.45z"/>
	<polygon class="st3" points="213.79,-131.68 225.96,-128.79 225.74,-115.51 235.59,-128.47 249.71,-126.28 240.16,-134.94
		247.43,-145.45 233.99,-141.19 221.64,-151.79 225.3,-137.35 	"/>
	<path class="st4" d="M213.79-131.68l12.17,2.89c0,0-79.76,132.97-108.6,174.99l-13.82-2.48
		C103.54,43.73,208.48-113.15,213.79-131.68z"/>
	<path class="st1" d="M225.74-115.51c0,0-91.05,156.92-107.06,182.84l-1.32-21.12l108.6-174.99L225.74-115.51z"/>
	<path class="st1" d="M235.59-128.47l14.12,2.19c0,0-87.27,161.1-110.19,195.58h-9.5L235.59-128.47z"/>
	<path class="st4" d="M235.59-128.47c0,0-87.61,175.13-107.58,199.17l-9.33-5.89l107.06-180.33L235.59-128.47z"/>
</g>
<g class="st0">
	<path class="st2" d="M81.48-162.63c0,0-60.07,107.69-100.49,159.32h11.78c0,0,54.29-62.68,93.22-141.53L81.48-162.63z"/>
	<path class="st2" d="M113.23-154.82c0,0-46.93,108.93-75.74,151.75h-7.33l72.05-138.8L113.23-154.82z"/>
	<polygon class="st5" points="71.81,-137.87 86.8,-134.31 86.54,-117.96 98.66,-133.91 116.04,-131.22 104.29,-141.88
		113.23,-154.82 96.69,-149.57 81.48,-162.63 85.99,-144.84 	"/>
	<path class="st6" d="M71.81-137.87l14.98,3.56c0,0-44.27,79.48-79.77,131.23L-7.23-3.32C-7.23-3.32,65.28-115.05,71.81-137.87z"/>
	<path class="st2" d="M86.54-117.96c0,0-46.75,82.97-66.47,114.88H7.03L86.8-134.31L86.54-117.96z"/>
	<path class="st2" d="M98.66-133.91l17.38,2.69c0,0-42.69,85.68-70.92,128.14L28.28-3.32L98.66-133.91z"/>
	<path class="st6" d="M98.66-133.91c0,0-45.79,102.3-70.39,131.9l-8.21-1.07l66.47-114.88L98.66-133.91z"/>
</g>
<g>
	<defs>
		<rect id="SVGID_1_" x="-196.56" y="-187.41" width="472.69" height="318.41"/>
	</defs>
	<clipPath id="SVGID_2_">
		<use xlink:href="#SVGID_1_"  style="overflow:visible;"/>
	</clipPath>
	<g class="st7">
		<path class="st8" d="M77.57,0.08c0,0-84.06,150.71-140.64,222.96h16.49c0,0,75.97-87.72,130.45-198.07L77.57,0.08z"/>
		<path class="st8" d="M122.01,11c0,0-65.68,152.45-106,212.36H5.75L106.58,29.12L122.01,11z"/>
		<polygon class="st9" points="64.04,34.73 85.01,39.72 84.64,62.59 101.62,40.27 125.94,44.04 109.49,29.12 122.01,11 98.85,18.35
			77.57,0.08 83.88,24.97 		"/>
		<path class="st10" d="M64.04,34.73l20.97,4.99c0,0-61.95,111.23-111.63,183.65l-19.95-0.33C-46.58,223.04,54.89,66.67,64.04,34.73
			z"/>
		<path class="st8" d="M84.64,62.59c0,0-65.43,116.12-93.02,160.78h-18.25L85.01,39.72L84.64,62.59z"/>
		<path class="st8" d="M101.62,40.27l24.32,3.77c0,0-59.75,119.91-99.25,179.33l-23.58-0.33L101.62,40.27z"/>
		<path class="st10" d="M101.62,40.27c0,0-64.09,143.17-98.51,184.6l-11.49-1.49L84.64,62.59L101.62,40.27z"/>
	</g>
</g>
</svg>
